<?xml version="1.0" encoding="UTF-8" standalone="no"?>
<!DOCTYPE svg PUBLIC "-//W3C//DTD SVG 1.1//EN"
 "http://www.w3.org/Graphics/SVG/1.1/DTD/svg11.dtd">
<!-- Generated by graphviz version 2.47.0 (20210316.0004)
 -->
<!-- Title: dependencies Pages: 1 -->
<svg width="1497pt" height="284pt"
 viewBox="0.00 0.00 1497.00 284.00" xmlns="http://www.w3.org/2000/svg" xmlns:xlink="http://www.w3.org/1999/xlink">
<g id="graph0" class="graph" transform="scale(1 1) rotate(0) translate(4 280)">
<title>dependencies</title>
<polygon fill="white" stroke="transparent" points="-4,4 -4,-280 1493,-280 1493,4 -4,4"/>
<text text-anchor="start" x="723.51" y="-42.4" font-family="Times-12" font-weight="bold" font-size="14.00">Legend</text>
<polygon fill="#ffffb3" stroke="transparent" points="510.5,-10 510.5,-30 530.5,-30 530.5,-10 510.5,-10"/>
<text text-anchor="start" x="534.13" y="-15.4" font-family="Times-12" font-size="14.00"> &#160;Declarations</text>
<polygon fill="#8dd3c7" stroke="transparent" points="623.5,-10 623.5,-30 643.5,-30 643.5,-10 623.5,-10"/>
<text text-anchor="start" x="647.23" y="-15.4" font-family="Times-12" font-size="14.00"> &#160;Module</text>
<polygon fill="#80b1d3" stroke="transparent" points="709.5,-10 709.5,-30 729.5,-30 729.5,-10 709.5,-10"/>
<text text-anchor="start" x="733.28" y="-15.4" font-family="Times-12" font-size="14.00"> &#160;Bootstrap</text>
<polygon fill="#fdb462" stroke="transparent" points="806.5,-10 806.5,-30 826.5,-30 826.5,-10 806.5,-10"/>
<text text-anchor="start" x="830.17" y="-15.4" font-family="Times-12" font-size="14.00"> &#160;Providers</text>
<polygon fill="#fb8072" stroke="transparent" points="902.5,-10 902.5,-30 922.5,-30 922.5,-10 902.5,-10"/>
<text text-anchor="start" x="926.23" y="-15.4" font-family="Times-12" font-size="14.00"> &#160;Exports</text>
<g id="clust1" class="cluster">
<title>cluster_RegistrarModule</title>
<polygon fill="none" stroke="black" stroke-dasharray="1,5" points="8,-70 8,-268 1481,-268 1481,-70 8,-70"/>
</g>
<g id="clust4" class="cluster">
<title>cluster_RegistrarModule_exports</title>
<polygon fill="none" stroke="black" points="559,-208 559,-260 1033,-260 1033,-208 559,-208"/>
</g>
<g id="clust3" class="cluster">
<title>cluster_RegistrarModule_imports</title>
<polygon fill="none" stroke="black" points="1359,-78 1359,-130 1473,-130 1473,-78 1359,-78"/>
</g>
<g id="clust6" class="cluster">
<title>cluster_RegistrarModule_providers</title>
<polygon fill="none" stroke="black" points="16,-78 16,-130 1351,-130 1351,-78 16,-78"/>
</g>
<!-- CryptoModule -->
<g id="node1" class="node">
<title>CryptoModule</title>
<polygon fill="#8dd3c7" stroke="black" points="1465.44,-122 1462.44,-126 1441.44,-126 1438.44,-122 1366.56,-122 1366.56,-86 1465.44,-86 1465.44,-122"/>
<text text-anchor="middle" x="1416" y="-99.8" font-family="Times,serif" font-size="14.00">CryptoModule</text>
</g>
<!-- RegistrarModule -->
<g id="node2" class="node">
<title>RegistrarModule</title>
<polygon fill="#8dd3c7" stroke="black" points="854.36,-187 851.36,-191 830.36,-191 827.36,-187 743.64,-187 743.64,-151 854.36,-151 854.36,-187"/>
<text text-anchor="middle" x="799" y="-164.8" font-family="Times,serif" font-size="14.00">RegistrarModule</text>
</g>
<!-- CryptoModule&#45;&gt;RegistrarModule -->
<g id="edge1" class="edge">
<title>CryptoModule&#45;&gt;RegistrarModule</title>
<path fill="none" stroke="black" d="M1416,-122.13C1416,-142.57 1416,-173 1416,-173 1416,-173 864.57,-173 864.57,-173"/>
<polygon fill="black" stroke="black" points="864.57,-169.5 854.57,-173 864.57,-176.5 864.57,-169.5"/>
</g>
<!-- RegistrarConfigService  -->
<g id="node3" class="node">
<title>RegistrarConfigService </title>
<polygon fill="#fb8072" stroke="black" points="1024.68,-252 873.32,-252 873.32,-216 1024.68,-216 1024.68,-252"/>
<text text-anchor="middle" x="949" y="-229.8" font-family="Times,serif" font-size="14.00">RegistrarConfigService </text>
</g>
<!-- RegistrarModule&#45;&gt;RegistrarConfigService  -->
<g id="edge2" class="edge">
<title>RegistrarModule&#45;&gt;RegistrarConfigService </title>
<path fill="none" stroke="black" stroke-dasharray="5,2" d="M854.6,-180C872.21,-180 887.19,-180 887.19,-180 887.19,-180 887.19,-205.72 887.19,-205.72"/>
<polygon fill="black" stroke="black" points="883.69,-205.72 887.19,-215.72 890.69,-205.72 883.69,-205.72"/>
</g>
<!-- RegistrarService  -->
<g id="node4" class="node">
<title>RegistrarService </title>
<polygon fill="#fb8072" stroke="black" points="855.29,-252 742.71,-252 742.71,-216 855.29,-216 855.29,-252"/>
<text text-anchor="middle" x="799" y="-229.8" font-family="Times,serif" font-size="14.00">RegistrarService </text>
</g>
<!-- RegistrarModule&#45;&gt;RegistrarService  -->
<g id="edge3" class="edge">
<title>RegistrarModule&#45;&gt;RegistrarService </title>
<path fill="none" stroke="black" stroke-dasharray="5,2" d="M799,-187.11C799,-187.11 799,-205.99 799,-205.99"/>
<polygon fill="black" stroke="black" points="795.5,-205.99 799,-215.99 802.5,-205.99 795.5,-205.99"/>
</g>
<!-- SchemaMetadataService  -->
<g id="node5" class="node">
<title>SchemaMetadataService </title>
<polygon fill="#fb8072" stroke="black" points="724.88,-252 567.12,-252 567.12,-216 724.88,-216 724.88,-252"/>
<text text-anchor="middle" x="646" y="-229.8" font-family="Times,serif" font-size="14.00">SchemaMetadataService </text>
</g>
<!-- RegistrarModule&#45;&gt;SchemaMetadataService  -->
<g id="edge4" class="edge">
<title>RegistrarModule&#45;&gt;SchemaMetadataService </title>
<path fill="none" stroke="black" stroke-dasharray="5,2" d="M743.43,-180C725.83,-180 710.86,-180 710.86,-180 710.86,-180 710.86,-205.72 710.86,-205.72"/>
<polygon fill="black" stroke="black" points="707.36,-205.72 710.86,-215.72 714.36,-205.72 707.36,-205.72"/>
</g>
<!-- AccessCertificateService -->
<g id="node6" class="node">
<title>AccessCertificateService</title>
<ellipse fill="#fdb462" stroke="black" cx="1235" cy="-104" rx="108.17" ry="18"/>
<text text-anchor="middle" x="1235" y="-99.8" font-family="Times,serif" font-size="14.00">AccessCertificateService</text>
</g>
<!-- AccessCertificateService&#45;&gt;RegistrarModule -->
<g id="edge5" class="edge">
<title>AccessCertificateService&#45;&gt;RegistrarModule</title>
<path fill="none" stroke="black" d="M1235,-122.27C1235,-140.56 1235,-166 1235,-166 1235,-166 864.66,-166 864.66,-166"/>
<polygon fill="black" stroke="black" points="864.66,-162.5 854.66,-166 864.66,-169.5 864.66,-162.5"/>
</g>
<!-- RegistrarAuthService -->
<g id="node7" class="node">
<title>RegistrarAuthService</title>
<ellipse fill="#fdb462" stroke="black" cx="1014" cy="-104" rx="94.9" ry="18"/>
<text text-anchor="middle" x="1014" y="-99.8" font-family="Times,serif" font-size="14.00">RegistrarAuthService</text>
</g>
<!-- RegistrarAuthService&#45;&gt;RegistrarModule -->
<g id="edge6" class="edge">
<title>RegistrarAuthService&#45;&gt;RegistrarModule</title>
<path fill="none" stroke="black" d="M972.07,-120.2C972.07,-136.43 972.07,-159 972.07,-159 972.07,-159 864.71,-159 864.71,-159"/>
<polygon fill="black" stroke="black" points="864.71,-155.5 854.71,-159 864.71,-162.5 864.71,-155.5"/>
</g>
<!-- RegistrarConfigService -->
<g id="node8" class="node">
<title>RegistrarConfigService</title>
<ellipse fill="#fdb462" stroke="black" cx="799" cy="-104" rx="102.42" ry="18"/>
<text text-anchor="middle" x="799" y="-99.8" font-family="Times,serif" font-size="14.00">RegistrarConfigService</text>
</g>
<!-- RegistrarConfigService&#45;&gt;RegistrarModule -->
<g id="edge7" class="edge">
<title>RegistrarConfigService&#45;&gt;RegistrarModule</title>
<path fill="none" stroke="black" d="M799,-122.11C799,-122.11 799,-140.99 799,-140.99"/>
<polygon fill="black" stroke="black" points="795.5,-140.99 799,-150.99 802.5,-140.99 795.5,-140.99"/>
</g>
<!-- RegistrarService -->
<g id="node9" class="node">
<title>RegistrarService</title>
<ellipse fill="#fdb462" stroke="black" cx="603" cy="-104" rx="75.27" ry="18"/>
<text text-anchor="middle" x="603" y="-99.8" font-family="Times,serif" font-size="14.00">RegistrarService</text>
</g>
<!-- RegistrarService&#45;&gt;RegistrarModule -->
<g id="edge8" class="edge">
<title>RegistrarService&#45;&gt;RegistrarModule</title>
<path fill="none" stroke="black" d="M622.72,-121.4C622.72,-137.52 622.72,-159 622.72,-159 622.72,-159 733.23,-159 733.23,-159"/>
<polygon fill="black" stroke="black" points="733.23,-162.5 743.23,-159 733.22,-155.5 733.23,-162.5"/>
</g>
<!-- RegistrationCertificateService -->
<g id="node10" class="node">
<title>RegistrationCertificateService</title>
<ellipse fill="#fdb462" stroke="black" cx="382" cy="-104" rx="127.89" ry="18"/>
<text text-anchor="middle" x="382" y="-99.8" font-family="Times,serif" font-size="14.00">RegistrationCertificateService</text>
</g>
<!-- RegistrationCertificateService&#45;&gt;RegistrarModule -->
<g id="edge9" class="edge">
<title>RegistrationCertificateService&#45;&gt;RegistrarModule</title>
<path fill="none" stroke="black" d="M382,-122.27C382,-140.56 382,-166 382,-166 382,-166 733.63,-166 733.63,-166"/>
<polygon fill="black" stroke="black" points="733.63,-169.5 743.63,-166 733.63,-162.5 733.63,-169.5"/>
</g>
<!-- SchemaMetadataService -->
<g id="node11" class="node">
<title>SchemaMetadataService</title>
<ellipse fill="#fdb462" stroke="black" cx="130" cy="-104" rx="106.48" ry="18"/>
<text text-anchor="middle" x="130" y="-99.8" font-family="Times,serif" font-size="14.00">SchemaMetadataService</text>
</g>
<!-- SchemaMetadataService&#45;&gt;RegistrarModule -->
<g id="edge10" class="edge">
<title>SchemaMetadataService&#45;&gt;RegistrarModule</title>
<path fill="none" stroke="black" d="M130,-122.13C130,-142.57 130,-173 130,-173 130,-173 733.4,-173 733.4,-173"/>
<polygon fill="black" stroke="black" points="733.4,-176.5 743.4,-173 733.4,-169.5 733.4,-176.5"/>
</g>
</g>
</svg>
