<?xml version="1.0" encoding="UTF-8" standalone="no"?>
<!DOCTYPE svg PUBLIC "-//W3C//DTD SVG 1.1//EN"
 "http://www.w3.org/Graphics/SVG/1.1/DTD/svg11.dtd">
<!-- Generated by graphviz version 2.47.0 (20210316.0004)
 -->
<!-- Title: dependencies Pages: 1 -->
<svg width="1158pt" height="284pt"
 viewBox="0.00 0.00 1158.00 284.00" xmlns="http://www.w3.org/2000/svg" xmlns:xlink="http://www.w3.org/1999/xlink">
<g id="graph0" class="graph" transform="scale(1 1) rotate(0) translate(4 280)">
<title>dependencies</title>
<polygon fill="white" stroke="transparent" points="-4,4 -4,-280 1154,-280 1154,4 -4,4"/>
<text text-anchor="start" x="554.01" y="-42.4" font-family="Times-12" font-weight="bold" font-size="14.00">Legend</text>
<polygon fill="#ffffb3" stroke="transparent" points="341,-10 341,-30 361,-30 361,-10 341,-10"/>
<text text-anchor="start" x="364.63" y="-15.4" font-family="Times-12" font-size="14.00"> &#160;Declarations</text>
<polygon fill="#8dd3c7" stroke="transparent" points="454,-10 454,-30 474,-30 474,-10 454,-10"/>
<text text-anchor="start" x="477.73" y="-15.4" font-family="Times-12" font-size="14.00"> &#160;Module</text>
<polygon fill="#80b1d3" stroke="transparent" points="540,-10 540,-30 560,-30 560,-10 540,-10"/>
<text text-anchor="start" x="563.78" y="-15.4" font-family="Times-12" font-size="14.00"> &#160;Bootstrap</text>
<polygon fill="#fdb462" stroke="transparent" points="637,-10 637,-30 657,-30 657,-10 637,-10"/>
<text text-anchor="start" x="660.67" y="-15.4" font-family="Times-12" font-size="14.00"> &#160;Providers</text>
<polygon fill="#fb8072" stroke="transparent" points="733,-10 733,-30 753,-30 753,-10 733,-10"/>
<text text-anchor="start" x="756.73" y="-15.4" font-family="Times-12" font-size="14.00"> &#160;Exports</text>
<g id="clust1" class="cluster">
<title>cluster_Iso18013Module</title>
<polygon fill="none" stroke="black" stroke-dasharray="1,5" points="8,-70 8,-268 1142,-268 1142,-70 8,-70"/>
</g>
<g id="clust4" class="cluster">
<title>cluster_Iso18013Module_exports</title>
<polygon fill="none" stroke="black" points="610,-208 610,-260 740,-260 740,-208 610,-208"/>
</g>
<g id="clust3" class="cluster">
<title>cluster_Iso18013Module_imports</title>
<polygon fill="none" stroke="black" points="616,-78 616,-130 1134,-130 1134,-78 616,-78"/>
</g>
<g id="clust6" class="cluster">
<title>cluster_Iso18013Module_providers</title>
<polygon fill="none" stroke="black" points="16,-78 16,-130 608,-130 608,-78 16,-78"/>
</g>
<!-- AuditLogModule -->
<g id="node1" class="node">
<title>AuditLogModule</title>
<polygon fill="#8dd3c7" stroke="black" points="1125.99,-122 1122.99,-126 1101.99,-126 1098.99,-122 1012.01,-122 1012.01,-86 1125.99,-86 1125.99,-122"/>
<text text-anchor="middle" x="1069" y="-99.8" font-family="Times,serif" font-size="14.00">AuditLogModule</text>
</g>
<!-- Iso18013Module -->
<g id="node5" class="node">
<title>Iso18013Module</title>
<polygon fill="#8dd3c7" stroke="black" points="730.66,-187 727.66,-191 706.66,-191 703.66,-187 619.34,-187 619.34,-151 730.66,-151 730.66,-187"/>
<text text-anchor="middle" x="675" y="-164.8" font-family="Times,serif" font-size="14.00">Iso18013Module</text>
</g>
<!-- AuditLogModule&#45;&gt;Iso18013Module -->
<g id="edge1" class="edge">
<title>AuditLogModule&#45;&gt;Iso18013Module</title>
<path fill="none" stroke="black" d="M1069,-122.29C1069,-144.21 1069,-178 1069,-178 1069,-178 741.03,-178 741.03,-178"/>
<polygon fill="black" stroke="black" points="741.03,-174.5 731.03,-178 741.03,-181.5 741.03,-174.5"/>
</g>
<!-- CryptoModule -->
<g id="node2" class="node">
<title>CryptoModule</title>
<polygon fill="#8dd3c7" stroke="black" points="994.44,-122 991.44,-126 970.44,-126 967.44,-122 895.56,-122 895.56,-86 994.44,-86 994.44,-122"/>
<text text-anchor="middle" x="945" y="-99.8" font-family="Times,serif" font-size="14.00">CryptoModule</text>
</g>
<!-- CryptoModule&#45;&gt;Iso18013Module -->
<g id="edge2" class="edge">
<title>CryptoModule&#45;&gt;Iso18013Module</title>
<path fill="none" stroke="black" d="M945,-122.11C945,-141.34 945,-169 945,-169 945,-169 740.94,-169 740.94,-169"/>
<polygon fill="black" stroke="black" points="740.94,-165.5 730.94,-169 740.94,-172.5 740.94,-165.5"/>
</g>
<!-- PresentationsModule -->
<g id="node3" class="node">
<title>PresentationsModule</title>
<polygon fill="#8dd3c7" stroke="black" points="878.2,-122 875.2,-126 854.2,-126 851.2,-122 743.8,-122 743.8,-86 878.2,-86 878.2,-122"/>
<text text-anchor="middle" x="811" y="-99.8" font-family="Times,serif" font-size="14.00">PresentationsModule</text>
</g>
<!-- PresentationsModule&#45;&gt;Iso18013Module -->
<g id="edge3" class="edge">
<title>PresentationsModule&#45;&gt;Iso18013Module</title>
<path fill="none" stroke="black" d="M811,-122.03C811,-138.4 811,-160 811,-160 811,-160 740.71,-160 740.71,-160"/>
<polygon fill="black" stroke="black" points="740.71,-156.5 730.71,-160 740.71,-163.5 740.71,-156.5"/>
</g>
<!-- SessionModule -->
<g id="node4" class="node">
<title>SessionModule</title>
<polygon fill="#8dd3c7" stroke="black" points="726.33,-122 723.33,-126 702.33,-126 699.33,-122 623.67,-122 623.67,-86 726.33,-86 726.33,-122"/>
<text text-anchor="middle" x="675" y="-99.8" font-family="Times,serif" font-size="14.00">SessionModule</text>
</g>
<!-- SessionModule&#45;&gt;Iso18013Module -->
<g id="edge4" class="edge">
<title>SessionModule&#45;&gt;Iso18013Module</title>
<path fill="none" stroke="black" d="M675,-122.11C675,-122.11 675,-140.99 675,-140.99"/>
<polygon fill="black" stroke="black" points="671.5,-140.99 675,-150.99 678.5,-140.99 671.5,-140.99"/>
</g>
<!-- Iso18013Service  -->
<g id="node6" class="node">
<title>Iso18013Service </title>
<polygon fill="#fb8072" stroke="black" points="731.58,-252 618.42,-252 618.42,-216 731.58,-216 731.58,-252"/>
<text text-anchor="middle" x="675" y="-229.8" font-family="Times,serif" font-size="14.00">Iso18013Service </text>
</g>
<!-- Iso18013Module&#45;&gt;Iso18013Service  -->
<g id="edge5" class="edge">
<title>Iso18013Module&#45;&gt;Iso18013Service </title>
<path fill="none" stroke="black" stroke-dasharray="5,2" d="M675,-187.11C675,-187.11 675,-205.99 675,-205.99"/>
<polygon fill="black" stroke="black" points="671.5,-205.99 675,-215.99 678.5,-205.99 671.5,-205.99"/>
</g>
<!-- Iso18013Service -->
<g id="node7" class="node">
<title>Iso18013Service</title>
<ellipse fill="#fdb462" stroke="black" cx="524" cy="-104" rx="75.87" ry="18"/>
<text text-anchor="middle" x="524" y="-99.8" font-family="Times,serif" font-size="14.00">Iso18013Service</text>
</g>
<!-- Iso18013Service&#45;&gt;Iso18013Module -->
<g id="edge6" class="edge">
<title>Iso18013Service&#45;&gt;Iso18013Module</title>
<path fill="none" stroke="black" d="M524,-122.03C524,-138.4 524,-160 524,-160 524,-160 609.2,-160 609.2,-160"/>
<polygon fill="black" stroke="black" points="609.2,-163.5 619.2,-160 609.2,-156.5 609.2,-163.5"/>
</g>
<!-- OutboundUrlPolicyService -->
<g id="node8" class="node">
<title>OutboundUrlPolicyService</title>
<ellipse fill="#fdb462" stroke="black" cx="314" cy="-104" rx="116.33" ry="18"/>
<text text-anchor="middle" x="314" y="-99.8" font-family="Times,serif" font-size="14.00">OutboundUrlPolicyService</text>
</g>
<!-- OutboundUrlPolicyService&#45;&gt;Iso18013Module -->
<g id="edge7" class="edge">
<title>OutboundUrlPolicyService&#45;&gt;Iso18013Module</title>
<path fill="none" stroke="black" d="M314,-122.11C314,-141.34 314,-169 314,-169 314,-169 608.99,-169 608.99,-169"/>
<polygon fill="black" stroke="black" points="608.99,-172.5 618.99,-169 608.99,-165.5 608.99,-172.5"/>
</g>
<!-- WebhookService -->
<g id="node9" class="node">
<title>WebhookService</title>
<ellipse fill="#fdb462" stroke="black" cx="102" cy="-104" rx="77.57" ry="18"/>
<text text-anchor="middle" x="102" y="-99.8" font-family="Times,serif" font-size="14.00">WebhookService</text>
</g>
<!-- WebhookService&#45;&gt;Iso18013Module -->
<g id="edge8" class="edge">
<title>WebhookService&#45;&gt;Iso18013Module</title>
<path fill="none" stroke="black" d="M102,-122.29C102,-144.21 102,-178 102,-178 102,-178 609.28,-178 609.28,-178"/>
<polygon fill="black" stroke="black" points="609.28,-181.5 619.28,-178 609.28,-174.5 609.28,-181.5"/>
</g>
</g>
</svg>
