<?xml version="1.0" encoding="UTF-8" standalone="no"?>
<!DOCTYPE svg PUBLIC "-//W3C//DTD SVG 1.1//EN"
 "http://www.w3.org/Graphics/SVG/1.1/DTD/svg11.dtd">
<!-- Generated by graphviz version 2.47.0 (20210316.0004)
 -->
<!-- Title: dependencies Pages: 1 -->
<svg width="542pt" height="284pt"
 viewBox="0.00 0.00 542.00 284.00" xmlns="http://www.w3.org/2000/svg" xmlns:xlink="http://www.w3.org/1999/xlink">
<g id="graph0" class="graph" transform="scale(1 1) rotate(0) translate(4 280)">
<title>dependencies</title>
<polygon fill="white" stroke="transparent" points="-4,4 -4,-280 538,-280 538,4 -4,4"/>
<text text-anchor="start" x="246.01" y="-42.4" font-family="Times-12" font-weight="bold" font-size="14.00">Legend</text>
<polygon fill="#ffffb3" stroke="transparent" points="33,-10 33,-30 53,-30 53,-10 33,-10"/>
<text text-anchor="start" x="56.63" y="-15.4" font-family="Times-12" font-size="14.00"> &#160;Declarations</text>
<polygon fill="#8dd3c7" stroke="transparent" points="146,-10 146,-30 166,-30 166,-10 146,-10"/>
<text text-anchor="start" x="169.73" y="-15.4" font-family="Times-12" font-size="14.00"> &#160;Module</text>
<polygon fill="#80b1d3" stroke="transparent" points="232,-10 232,-30 252,-30 252,-10 232,-10"/>
<text text-anchor="start" x="255.78" y="-15.4" font-family="Times-12" font-size="14.00"> &#160;Bootstrap</text>
<polygon fill="#fdb462" stroke="transparent" points="329,-10 329,-30 349,-30 349,-10 329,-10"/>
<text text-anchor="start" x="352.67" y="-15.4" font-family="Times-12" font-size="14.00"> &#160;Providers</text>
<polygon fill="#fb8072" stroke="transparent" points="425,-10 425,-30 445,-30 445,-10 425,-10"/>
<text text-anchor="start" x="448.73" y="-15.4" font-family="Times-12" font-size="14.00"> &#160;Exports</text>
<g id="clust1" class="cluster">
<title>cluster_AttributeProviderModule</title>
<polygon fill="none" stroke="black" stroke-dasharray="1,5" points="8,-70 8,-268 526,-268 526,-70 8,-70"/>
</g>
<g id="clust4" class="cluster">
<title>cluster_AttributeProviderModule_exports</title>
<polygon fill="none" stroke="black" points="125,-208 125,-260 301,-260 301,-208 125,-208"/>
</g>
<g id="clust6" class="cluster">
<title>cluster_AttributeProviderModule_providers</title>
<polygon fill="none" stroke="black" points="286,-78 286,-130 518,-130 518,-78 286,-78"/>
</g>
<g id="clust3" class="cluster">
<title>cluster_AttributeProviderModule_imports</title>
<polygon fill="none" stroke="black" points="16,-78 16,-130 278,-130 278,-78 16,-78"/>
</g>
<!-- AuditLogModule -->
<g id="node1" class="node">
<title>AuditLogModule</title>
<polygon fill="#8dd3c7" stroke="black" points="269.99,-122 266.99,-126 245.99,-126 242.99,-122 156.01,-122 156.01,-86 269.99,-86 269.99,-122"/>
<text text-anchor="middle" x="213" y="-99.8" font-family="Times,serif" font-size="14.00">AuditLogModule</text>
</g>
<!-- AttributeProviderModule -->
<g id="node3" class="node">
<title>AttributeProviderModule</title>
<polygon fill="#8dd3c7" stroke="black" points="292.3,-187 289.3,-191 268.3,-191 265.3,-187 133.7,-187 133.7,-151 292.3,-151 292.3,-187"/>
<text text-anchor="middle" x="213" y="-164.8" font-family="Times,serif" font-size="14.00">AttributeProviderModule</text>
</g>
<!-- AuditLogModule&#45;&gt;AttributeProviderModule -->
<g id="edge1" class="edge">
<title>AuditLogModule&#45;&gt;AttributeProviderModule</title>
<path fill="none" stroke="black" d="M213,-122.11C213,-122.11 213,-140.99 213,-140.99"/>
<polygon fill="black" stroke="black" points="209.5,-140.99 213,-150.99 216.5,-140.99 209.5,-140.99"/>
</g>
<!-- WebhookModule -->
<g id="node2" class="node">
<title>WebhookModule</title>
<polygon fill="#8dd3c7" stroke="black" points="137.98,-122 134.98,-126 113.98,-126 110.98,-122 24.02,-122 24.02,-86 137.98,-86 137.98,-122"/>
<text text-anchor="middle" x="81" y="-99.8" font-family="Times,serif" font-size="14.00">WebhookModule</text>
</g>
<!-- WebhookModule&#45;&gt;AttributeProviderModule -->
<g id="edge2" class="edge">
<title>WebhookModule&#45;&gt;AttributeProviderModule</title>
<path fill="none" stroke="black" d="M138.1,-104C143.49,-104 147,-104 147,-104 147,-104 147,-140.89 147,-140.89"/>
<polygon fill="black" stroke="black" points="143.5,-140.89 147,-150.89 150.5,-140.89 143.5,-140.89"/>
</g>
<!-- AttributeProviderService  -->
<g id="node4" class="node">
<title>AttributeProviderService </title>
<polygon fill="#fb8072" stroke="black" points="293.23,-252 132.77,-252 132.77,-216 293.23,-216 293.23,-252"/>
<text text-anchor="middle" x="213" y="-229.8" font-family="Times,serif" font-size="14.00">AttributeProviderService </text>
</g>
<!-- AttributeProviderModule&#45;&gt;AttributeProviderService  -->
<g id="edge3" class="edge">
<title>AttributeProviderModule&#45;&gt;AttributeProviderService </title>
<path fill="none" stroke="black" stroke-dasharray="5,2" d="M213,-187.11C213,-187.11 213,-205.99 213,-205.99"/>
<polygon fill="black" stroke="black" points="209.5,-205.99 213,-215.99 216.5,-205.99 209.5,-205.99"/>
</g>
<!-- AttributeProviderService -->
<g id="node5" class="node">
<title>AttributeProviderService</title>
<ellipse fill="#fdb462" stroke="black" cx="402" cy="-104" rx="108.22" ry="18"/>
<text text-anchor="middle" x="402" y="-99.8" font-family="Times,serif" font-size="14.00">AttributeProviderService</text>
</g>
<!-- AttributeProviderService&#45;&gt;AttributeProviderModule -->
<g id="edge4" class="edge">
<title>AttributeProviderService&#45;&gt;AttributeProviderModule</title>
<path fill="none" stroke="black" d="M293.56,-104C285.87,-104 281.07,-104 281.07,-104 281.07,-104 281.07,-140.89 281.07,-140.89"/>
<polygon fill="black" stroke="black" points="277.57,-140.89 281.07,-150.89 284.57,-140.89 277.57,-140.89"/>
</g>
</g>
</svg>
