<?xml version="1.0" encoding="UTF-8" standalone="no"?>
<!DOCTYPE svg PUBLIC "-//W3C//DTD SVG 1.1//EN"
 "http://www.w3.org/Graphics/SVG/1.1/DTD/svg11.dtd">
<!-- Generated by graphviz version 2.47.0 (20210316.0004)
 -->
<!-- Title: dependencies Pages: 1 -->
<svg width="1028pt" height="284pt"
 viewBox="0.00 0.00 1028.00 284.00" xmlns="http://www.w3.org/2000/svg" xmlns:xlink="http://www.w3.org/1999/xlink">
<g id="graph0" class="graph" transform="scale(1 1) rotate(0) translate(4 280)">
<title>dependencies</title>
<polygon fill="white" stroke="transparent" points="-4,4 -4,-280 1024,-280 1024,4 -4,4"/>
<text text-anchor="start" x="489.01" y="-42.4" font-family="Times-12" font-weight="bold" font-size="14.00">Legend</text>
<polygon fill="#ffffb3" stroke="transparent" points="276,-10 276,-30 296,-30 296,-10 276,-10"/>
<text text-anchor="start" x="299.63" y="-15.4" font-family="Times-12" font-size="14.00"> &#160;Declarations</text>
<polygon fill="#8dd3c7" stroke="transparent" points="389,-10 389,-30 409,-30 409,-10 389,-10"/>
<text text-anchor="start" x="412.73" y="-15.4" font-family="Times-12" font-size="14.00"> &#160;Module</text>
<polygon fill="#80b1d3" stroke="transparent" points="475,-10 475,-30 495,-30 495,-10 475,-10"/>
<text text-anchor="start" x="498.78" y="-15.4" font-family="Times-12" font-size="14.00"> &#160;Bootstrap</text>
<polygon fill="#fdb462" stroke="transparent" points="572,-10 572,-30 592,-30 592,-10 572,-10"/>
<text text-anchor="start" x="595.67" y="-15.4" font-family="Times-12" font-size="14.00"> &#160;Providers</text>
<polygon fill="#fb8072" stroke="transparent" points="668,-10 668,-30 688,-30 688,-10 668,-10"/>
<text text-anchor="start" x="691.73" y="-15.4" font-family="Times-12" font-size="14.00"> &#160;Exports</text>
<g id="clust1" class="cluster">
<title>cluster_SessionModule</title>
<polygon fill="none" stroke="black" stroke-dasharray="1,5" points="8,-70 8,-268 1012,-268 1012,-70 8,-70"/>
</g>
<g id="clust4" class="cluster">
<title>cluster_SessionModule_exports</title>
<polygon fill="none" stroke="black" points="148,-208 148,-260 762,-260 762,-208 148,-208"/>
</g>
<g id="clust6" class="cluster">
<title>cluster_SessionModule_providers</title>
<polygon fill="none" stroke="black" points="430,-78 430,-130 1004,-130 1004,-78 430,-78"/>
</g>
<g id="clust3" class="cluster">
<title>cluster_SessionModule_imports</title>
<polygon fill="none" stroke="black" points="16,-78 16,-130 422,-130 422,-78 16,-78"/>
</g>
<!-- AuthModule -->
<g id="node1" class="node">
<title>AuthModule</title>
<polygon fill="#8dd3c7" stroke="black" points="413.55,-122 410.55,-126 389.55,-126 386.55,-122 326.45,-122 326.45,-86 413.55,-86 413.55,-122"/>
<text text-anchor="middle" x="370" y="-99.8" font-family="Times,serif" font-size="14.00">AuthModule</text>
</g>
<!-- SessionModule -->
<g id="node4" class="node">
<title>SessionModule</title>
<polygon fill="#8dd3c7" stroke="black" points="489.33,-187 486.33,-191 465.33,-191 462.33,-187 386.67,-187 386.67,-151 489.33,-151 489.33,-187"/>
<text text-anchor="middle" x="438" y="-164.8" font-family="Times,serif" font-size="14.00">SessionModule</text>
</g>
<!-- AuthModule&#45;&gt;SessionModule -->
<g id="edge1" class="edge">
<title>AuthModule&#45;&gt;SessionModule</title>
<path fill="none" stroke="black" d="M400.31,-122.11C400.31,-122.11 400.31,-140.99 400.31,-140.99"/>
<polygon fill="black" stroke="black" points="396.81,-140.99 400.31,-150.99 403.81,-140.99 396.81,-140.99"/>
</g>
<!-- SessionLoggingModule -->
<g id="node2" class="node">
<title>SessionLoggingModule</title>
<polygon fill="#8dd3c7" stroke="black" points="307.77,-122 304.77,-126 283.77,-126 280.77,-122 158.23,-122 158.23,-86 307.77,-86 307.77,-122"/>
<text text-anchor="middle" x="233" y="-99.8" font-family="Times,serif" font-size="14.00">SessionLoggingModule</text>
</g>
<!-- SessionLoggingModule&#45;&gt;SessionModule -->
<g id="edge2" class="edge">
<title>SessionLoggingModule&#45;&gt;SessionModule</title>
<path fill="none" stroke="black" d="M293.12,-122.03C293.12,-138.4 293.12,-160 293.12,-160 293.12,-160 376.51,-160 376.51,-160"/>
<polygon fill="black" stroke="black" points="376.51,-163.5 386.51,-160 376.51,-156.5 376.51,-163.5"/>
</g>
<!-- StatusListModule -->
<g id="node3" class="node">
<title>StatusListModule</title>
<polygon fill="#8dd3c7" stroke="black" points="139.55,-122 136.55,-126 115.55,-126 112.55,-122 24.45,-122 24.45,-86 139.55,-86 139.55,-122"/>
<text text-anchor="middle" x="82" y="-99.8" font-family="Times,serif" font-size="14.00">StatusListModule</text>
</g>
<!-- StatusListModule&#45;&gt;SessionModule -->
<g id="edge3" class="edge">
<title>StatusListModule&#45;&gt;SessionModule</title>
<path fill="none" stroke="black" d="M82,-122.11C82,-141.34 82,-169 82,-169 82,-169 376.61,-169 376.61,-169"/>
<polygon fill="black" stroke="black" points="376.61,-172.5 386.61,-169 376.61,-165.5 376.61,-172.5"/>
</g>
<!-- SessionConfigService  -->
<g id="node5" class="node">
<title>SessionConfigService </title>
<polygon fill="#fb8072" stroke="black" points="753.64,-252 610.36,-252 610.36,-216 753.64,-216 753.64,-252"/>
<text text-anchor="middle" x="682" y="-229.8" font-family="Times,serif" font-size="14.00">SessionConfigService </text>
</g>
<!-- SessionModule&#45;&gt;SessionConfigService  -->
<g id="edge4" class="edge">
<title>SessionModule&#45;&gt;SessionConfigService </title>
<path fill="none" stroke="black" stroke-dasharray="5,2" d="M489.45,-178C561.03,-178 682,-178 682,-178 682,-178 682,-205.97 682,-205.97"/>
<polygon fill="black" stroke="black" points="678.5,-205.97 682,-215.97 685.5,-205.97 678.5,-205.97"/>
</g>
<!-- SessionEventsService  -->
<g id="node6" class="node">
<title>SessionEventsService </title>
<polygon fill="#fb8072" stroke="black" points="592.36,-252 449.64,-252 449.64,-216 592.36,-216 592.36,-252"/>
<text text-anchor="middle" x="521" y="-229.8" font-family="Times,serif" font-size="14.00">SessionEventsService </text>
</g>
<!-- SessionModule&#45;&gt;SessionEventsService  -->
<g id="edge5" class="edge">
<title>SessionModule&#45;&gt;SessionEventsService </title>
<path fill="none" stroke="black" stroke-dasharray="5,2" d="M469.49,-187.11C469.49,-187.11 469.49,-205.99 469.49,-205.99"/>
<polygon fill="black" stroke="black" points="465.99,-205.99 469.49,-215.99 472.99,-205.99 465.99,-205.99"/>
</g>
<!-- SessionLoggingModule  -->
<g id="node7" class="node">
<title>SessionLoggingModule </title>
<polygon fill="#fb8072" stroke="black" points="431.77,-252 278.23,-252 278.23,-216 431.77,-216 431.77,-252"/>
<text text-anchor="middle" x="355" y="-229.8" font-family="Times,serif" font-size="14.00">SessionLoggingModule </text>
</g>
<!-- SessionModule&#45;&gt;SessionLoggingModule  -->
<g id="edge6" class="edge">
<title>SessionModule&#45;&gt;SessionLoggingModule </title>
<path fill="none" stroke="black" stroke-dasharray="5,2" d="M409.24,-187.11C409.24,-187.11 409.24,-205.99 409.24,-205.99"/>
<polygon fill="black" stroke="black" points="405.74,-205.99 409.24,-215.99 412.74,-205.99 405.74,-205.99"/>
</g>
<!-- SessionService  -->
<g id="node8" class="node">
<title>SessionService </title>
<polygon fill="#fb8072" stroke="black" points="260.25,-252 155.75,-252 155.75,-216 260.25,-216 260.25,-252"/>
<text text-anchor="middle" x="208" y="-229.8" font-family="Times,serif" font-size="14.00">SessionService </text>
</g>
<!-- SessionModule&#45;&gt;SessionService  -->
<g id="edge7" class="edge">
<title>SessionModule&#45;&gt;SessionService </title>
<path fill="none" stroke="black" stroke-dasharray="5,2" d="M386.64,-178C319.15,-178 209.12,-178 209.12,-178 209.12,-178 209.12,-205.97 209.12,-205.97"/>
<polygon fill="black" stroke="black" points="205.62,-205.97 209.12,-215.97 212.62,-205.97 205.62,-205.97"/>
</g>
<!-- SessionConfigService -->
<g id="node9" class="node">
<title>SessionConfigService</title>
<ellipse fill="#fdb462" stroke="black" cx="900" cy="-104" rx="96.15" ry="18"/>
<text text-anchor="middle" x="900" y="-99.8" font-family="Times,serif" font-size="14.00">SessionConfigService</text>
</g>
<!-- SessionConfigService&#45;&gt;SessionModule -->
<g id="edge8" class="edge">
<title>SessionConfigService&#45;&gt;SessionModule</title>
<path fill="none" stroke="black" d="M900,-122.11C900,-141.34 900,-169 900,-169 900,-169 499.21,-169 499.21,-169"/>
<polygon fill="black" stroke="black" points="499.21,-165.5 489.21,-169 499.21,-172.5 499.21,-165.5"/>
</g>
<!-- SessionEventsService -->
<g id="node10" class="node">
<title>SessionEventsService</title>
<ellipse fill="#fdb462" stroke="black" cx="690" cy="-104" rx="95.56" ry="18"/>
<text text-anchor="middle" x="690" y="-99.8" font-family="Times,serif" font-size="14.00">SessionEventsService</text>
</g>
<!-- SessionEventsService&#45;&gt;SessionModule -->
<g id="edge9" class="edge">
<title>SessionEventsService&#45;&gt;SessionModule</title>
<path fill="none" stroke="black" d="M602.32,-111.32C602.32,-126.5 602.32,-160 602.32,-160 602.32,-160 499.54,-160 499.54,-160"/>
<polygon fill="black" stroke="black" points="499.54,-156.5 489.54,-160 499.54,-163.5 499.54,-156.5"/>
</g>
<!-- SessionService -->
<g id="node11" class="node">
<title>SessionService</title>
<ellipse fill="#fdb462" stroke="black" cx="507" cy="-104" rx="69.5" ry="18"/>
<text text-anchor="middle" x="507" y="-99.8" font-family="Times,serif" font-size="14.00">SessionService</text>
</g>
<!-- SessionService&#45;&gt;SessionModule -->
<g id="edge10" class="edge">
<title>SessionService&#45;&gt;SessionModule</title>
<path fill="none" stroke="black" d="M463.33,-118.1C463.33,-118.1 463.33,-140.72 463.33,-140.72"/>
<polygon fill="black" stroke="black" points="459.83,-140.72 463.33,-150.72 466.83,-140.72 459.83,-140.72"/>
</g>
</g>
</svg>
