<?xml version="1.0" encoding="UTF-8" standalone="no"?>
<!DOCTYPE svg PUBLIC "-//W3C//DTD SVG 1.1//EN"
 "http://www.w3.org/Graphics/SVG/1.1/DTD/svg11.dtd">
<!-- Generated by graphviz version 2.47.0 (20210316.0004)
 -->
<!-- Title: dependencies Pages: 1 -->
<svg width="1631pt" height="284pt"
 viewBox="0.00 0.00 1631.00 284.00" xmlns="http://www.w3.org/2000/svg" xmlns:xlink="http://www.w3.org/1999/xlink">
<g id="graph0" class="graph" transform="scale(1 1) rotate(0) translate(4 280)">
<title>dependencies</title>
<polygon fill="white" stroke="transparent" points="-4,4 -4,-280 1627,-280 1627,4 -4,4"/>
<text text-anchor="start" x="790.51" y="-42.4" font-family="Times-12" font-weight="bold" font-size="14.00">Legend</text>
<polygon fill="#ffffb3" stroke="transparent" points="577.5,-10 577.5,-30 597.5,-30 597.5,-10 577.5,-10"/>
<text text-anchor="start" x="601.13" y="-15.4" font-family="Times-12" font-size="14.00"> &#160;Declarations</text>
<polygon fill="#8dd3c7" stroke="transparent" points="690.5,-10 690.5,-30 710.5,-30 710.5,-10 690.5,-10"/>
<text text-anchor="start" x="714.23" y="-15.4" font-family="Times-12" font-size="14.00"> &#160;Module</text>
<polygon fill="#80b1d3" stroke="transparent" points="776.5,-10 776.5,-30 796.5,-30 796.5,-10 776.5,-10"/>
<text text-anchor="start" x="800.28" y="-15.4" font-family="Times-12" font-size="14.00"> &#160;Bootstrap</text>
<polygon fill="#fdb462" stroke="transparent" points="873.5,-10 873.5,-30 893.5,-30 893.5,-10 873.5,-10"/>
<text text-anchor="start" x="897.17" y="-15.4" font-family="Times-12" font-size="14.00"> &#160;Providers</text>
<polygon fill="#fb8072" stroke="transparent" points="969.5,-10 969.5,-30 989.5,-30 989.5,-10 969.5,-10"/>
<text text-anchor="start" x="993.23" y="-15.4" font-family="Times-12" font-size="14.00"> &#160;Exports</text>
<g id="clust1" class="cluster">
<title>cluster_TrustModule</title>
<polygon fill="none" stroke="black" stroke-dasharray="1,5" points="8,-70 8,-268 1615,-268 1615,-70 8,-70"/>
</g>
<g id="clust3" class="cluster">
<title>cluster_TrustModule_imports</title>
<polygon fill="none" stroke="black" points="1493,-78 1493,-130 1607,-130 1607,-78 1493,-78"/>
</g>
<g id="clust4" class="cluster">
<title>cluster_TrustModule_exports</title>
<polygon fill="none" stroke="black" points="441,-208 441,-260 1273,-260 1273,-208 441,-208"/>
</g>
<g id="clust6" class="cluster">
<title>cluster_TrustModule_providers</title>
<polygon fill="none" stroke="black" points="16,-78 16,-130 1485,-130 1485,-78 16,-78"/>
</g>
<!-- CryptoModule -->
<g id="node1" class="node">
<title>CryptoModule</title>
<polygon fill="#8dd3c7" stroke="black" points="1599.44,-122 1596.44,-126 1575.44,-126 1572.44,-122 1500.56,-122 1500.56,-86 1599.44,-86 1599.44,-122"/>
<text text-anchor="middle" x="1550" y="-99.8" font-family="Times,serif" font-size="14.00">CryptoModule</text>
</g>
<!-- TrustModule -->
<g id="node2" class="node">
<title>TrustModule</title>
<polygon fill="#8dd3c7" stroke="black" points="901.6,-187 898.6,-191 877.6,-191 874.6,-187 812.4,-187 812.4,-151 901.6,-151 901.6,-187"/>
<text text-anchor="middle" x="857" y="-164.8" font-family="Times,serif" font-size="14.00">TrustModule</text>
</g>
<!-- CryptoModule&#45;&gt;TrustModule -->
<g id="edge1" class="edge">
<title>CryptoModule&#45;&gt;TrustModule</title>
<path fill="none" stroke="black" d="M1550,-122.11C1550,-141.34 1550,-169 1550,-169 1550,-169 911.67,-169 911.67,-169"/>
<polygon fill="black" stroke="black" points="911.67,-165.5 901.67,-169 911.67,-172.5 911.67,-165.5"/>
</g>
<!-- FederationTrustService  -->
<g id="node3" class="node">
<title>FederationTrustService </title>
<polygon fill="#fb8072" stroke="black" points="1265.39,-252 1114.61,-252 1114.61,-216 1265.39,-216 1265.39,-252"/>
<text text-anchor="middle" x="1190" y="-229.8" font-family="Times,serif" font-size="14.00">FederationTrustService </text>
</g>
<!-- TrustModule&#45;&gt;FederationTrustService  -->
<g id="edge2" class="edge">
<title>TrustModule&#45;&gt;FederationTrustService </title>
<path fill="none" stroke="black" stroke-dasharray="5,2" d="M901.6,-175C991.33,-175 1185.18,-175 1185.18,-175 1185.18,-175 1185.18,-205.98 1185.18,-205.98"/>
<polygon fill="black" stroke="black" points="1181.69,-205.98 1185.18,-215.98 1188.69,-205.98 1181.69,-205.98"/>
</g>
<!-- StatusListVerifierService  -->
<g id="node4" class="node">
<title>StatusListVerifierService </title>
<polygon fill="#fb8072" stroke="black" points="1096.78,-252 935.22,-252 935.22,-216 1096.78,-216 1096.78,-252"/>
<text text-anchor="middle" x="1016" y="-229.8" font-family="Times,serif" font-size="14.00">StatusListVerifierService </text>
</g>
<!-- TrustModule&#45;&gt;StatusListVerifierService  -->
<g id="edge3" class="edge">
<title>TrustModule&#45;&gt;StatusListVerifierService </title>
<path fill="none" stroke="black" stroke-dasharray="5,2" d="M901.7,-181C945.15,-181 1004.64,-181 1004.64,-181 1004.64,-181 1004.64,-205.76 1004.64,-205.76"/>
<polygon fill="black" stroke="black" points="1001.14,-205.76 1004.64,-215.76 1008.14,-205.76 1001.14,-205.76"/>
</g>
<!-- TrustStoreService  -->
<g id="node5" class="node">
<title>TrustStoreService </title>
<polygon fill="#fb8072" stroke="black" points="917.08,-252 796.92,-252 796.92,-216 917.08,-216 917.08,-252"/>
<text text-anchor="middle" x="857" y="-229.8" font-family="Times,serif" font-size="14.00">TrustStoreService </text>
</g>
<!-- TrustModule&#45;&gt;TrustStoreService  -->
<g id="edge4" class="edge">
<title>TrustModule&#45;&gt;TrustStoreService </title>
<path fill="none" stroke="black" stroke-dasharray="5,2" d="M857,-187.11C857,-187.11 857,-205.99 857,-205.99"/>
<polygon fill="black" stroke="black" points="853.5,-205.99 857,-215.99 860.5,-205.99 853.5,-205.99"/>
</g>
<!-- WalletAttestationService  -->
<g id="node6" class="node">
<title>WalletAttestationService </title>
<polygon fill="#fb8072" stroke="black" points="779.23,-252 618.77,-252 618.77,-216 779.23,-216 779.23,-252"/>
<text text-anchor="middle" x="699" y="-229.8" font-family="Times,serif" font-size="14.00">WalletAttestationService </text>
</g>
<!-- TrustModule&#45;&gt;WalletAttestationService  -->
<g id="edge5" class="edge">
<title>TrustModule&#45;&gt;WalletAttestationService </title>
<path fill="none" stroke="black" stroke-dasharray="5,2" d="M812.41,-181C772.3,-181 719.65,-181 719.65,-181 719.65,-181 719.65,-205.76 719.65,-205.76"/>
<polygon fill="black" stroke="black" points="716.15,-205.76 719.65,-215.76 723.15,-205.76 716.15,-205.76"/>
</g>
<!-- X509ValidationService  -->
<g id="node7" class="node">
<title>X509ValidationService </title>
<polygon fill="#fb8072" stroke="black" points="600.68,-252 449.32,-252 449.32,-216 600.68,-216 600.68,-252"/>
<text text-anchor="middle" x="525" y="-229.8" font-family="Times,serif" font-size="14.00">X509ValidationService </text>
</g>
<!-- TrustModule&#45;&gt;X509ValidationService  -->
<g id="edge6" class="edge">
<title>TrustModule&#45;&gt;X509ValidationService </title>
<path fill="none" stroke="black" stroke-dasharray="5,2" d="M812.33,-175C725.1,-175 540.54,-175 540.54,-175 540.54,-175 540.54,-205.98 540.54,-205.98"/>
<polygon fill="black" stroke="black" points="537.04,-205.98 540.54,-215.98 544.04,-205.98 537.04,-205.98"/>
</g>
<!-- FederationTrustService -->
<g id="node8" class="node">
<title>FederationTrustService</title>
<ellipse fill="#fdb462" stroke="black" cx="1375" cy="-104" rx="101.84" ry="18"/>
<text text-anchor="middle" x="1375" y="-99.8" font-family="Times,serif" font-size="14.00">FederationTrustService</text>
</g>
<!-- FederationTrustService&#45;&gt;TrustModule -->
<g id="edge7" class="edge">
<title>FederationTrustService&#45;&gt;TrustModule</title>
<path fill="none" stroke="black" d="M1375,-122.02C1375,-139.37 1375,-163 1375,-163 1375,-163 911.61,-163 911.61,-163"/>
<polygon fill="black" stroke="black" points="911.61,-159.5 901.61,-163 911.61,-166.5 911.61,-159.5"/>
</g>
<!-- LoteParserService -->
<g id="node9" class="node">
<title>LoteParserService</title>
<ellipse fill="#fdb462" stroke="black" cx="1174" cy="-104" rx="81.63" ry="18"/>
<text text-anchor="middle" x="1174" y="-99.8" font-family="Times,serif" font-size="14.00">LoteParserService</text>
</g>
<!-- LoteParserService&#45;&gt;TrustModule -->
<g id="edge8" class="edge">
<title>LoteParserService&#45;&gt;TrustModule</title>
<path fill="none" stroke="black" d="M1105.72,-114.22C1105.72,-129.62 1105.72,-157 1105.72,-157 1105.72,-157 911.75,-157 911.75,-157"/>
<polygon fill="black" stroke="black" points="911.75,-153.5 901.75,-157 911.75,-160.5 911.75,-153.5"/>
</g>
<!-- StatusListVerifierService -->
<g id="node10" class="node">
<title>StatusListVerifierService</title>
<ellipse fill="#fdb462" stroke="black" cx="965" cy="-104" rx="109.35" ry="18"/>
<text text-anchor="middle" x="965" y="-99.8" font-family="Times,serif" font-size="14.00">StatusListVerifierService</text>
</g>
<!-- StatusListVerifierService&#45;&gt;TrustModule -->
<g id="edge9" class="edge">
<title>StatusListVerifierService&#45;&gt;TrustModule</title>
<path fill="none" stroke="black" d="M878.69,-115.03C878.69,-115.03 878.69,-140.78 878.69,-140.78"/>
<polygon fill="black" stroke="black" points="875.19,-140.78 878.69,-150.78 882.19,-140.78 875.19,-140.78"/>
</g>
<!-- TrustListJwtService -->
<g id="node11" class="node">
<title>TrustListJwtService</title>
<ellipse fill="#fdb462" stroke="black" cx="749" cy="-104" rx="88.61" ry="18"/>
<text text-anchor="middle" x="749" y="-99.8" font-family="Times,serif" font-size="14.00">TrustListJwtService</text>
</g>
<!-- TrustListJwtService&#45;&gt;TrustModule -->
<g id="edge10" class="edge">
<title>TrustListJwtService&#45;&gt;TrustModule</title>
<path fill="none" stroke="black" d="M825.13,-113.31C825.13,-113.31 825.13,-140.85 825.13,-140.85"/>
<polygon fill="black" stroke="black" points="821.63,-140.85 825.13,-150.85 828.63,-140.85 821.63,-140.85"/>
</g>
<!-- TrustStoreService -->
<g id="node12" class="node">
<title>TrustStoreService</title>
<ellipse fill="#fdb462" stroke="black" cx="561" cy="-104" rx="80.51" ry="18"/>
<text text-anchor="middle" x="561" y="-99.8" font-family="Times,serif" font-size="14.00">TrustStoreService</text>
</g>
<!-- TrustStoreService&#45;&gt;TrustModule -->
<g id="edge11" class="edge">
<title>TrustStoreService&#45;&gt;TrustModule</title>
<path fill="none" stroke="black" d="M630.32,-113.72C630.32,-129.02 630.32,-157 630.32,-157 630.32,-157 802.22,-157 802.22,-157"/>
<polygon fill="black" stroke="black" points="802.22,-160.5 812.22,-157 802.22,-153.5 802.22,-160.5"/>
</g>
<!-- WalletAttestationService -->
<g id="node13" class="node">
<title>WalletAttestationService</title>
<ellipse fill="#fdb462" stroke="black" cx="354" cy="-104" rx="108.21" ry="18"/>
<text text-anchor="middle" x="354" y="-99.8" font-family="Times,serif" font-size="14.00">WalletAttestationService</text>
</g>
<!-- WalletAttestationService&#45;&gt;TrustModule -->
<g id="edge12" class="edge">
<title>WalletAttestationService&#45;&gt;TrustModule</title>
<path fill="none" stroke="black" d="M455.63,-110.31C455.63,-125.53 455.63,-163 455.63,-163 455.63,-163 802.13,-163 802.13,-163"/>
<polygon fill="black" stroke="black" points="802.13,-166.5 812.13,-163 802.13,-159.5 802.13,-166.5"/>
</g>
<!-- X509ValidationService -->
<g id="node14" class="node">
<title>X509ValidationService</title>
<ellipse fill="#fdb462" stroke="black" cx="126" cy="-104" rx="102.43" ry="18"/>
<text text-anchor="middle" x="126" y="-99.8" font-family="Times,serif" font-size="14.00">X509ValidationService</text>
</g>
<!-- X509ValidationService&#45;&gt;TrustModule -->
<g id="edge13" class="edge">
<title>X509ValidationService&#45;&gt;TrustModule</title>
<path fill="none" stroke="black" d="M126,-122.11C126,-141.34 126,-169 126,-169 126,-169 802.37,-169 802.37,-169"/>
<polygon fill="black" stroke="black" points="802.37,-172.5 812.37,-169 802.37,-165.5 802.37,-172.5"/>
</g>
</g>
</svg>
