<?xml version="1.0" encoding="UTF-8" standalone="no"?>
<!DOCTYPE svg PUBLIC "-//W3C//DTD SVG 1.1//EN"
 "http://www.w3.org/Graphics/SVG/1.1/DTD/svg11.dtd">
<!-- Generated by graphviz version 2.47.0 (20210316.0004)
 -->
<!-- Title: dependencies Pages: 1 -->
<svg width="806pt" height="211pt"
 viewBox="0.00 0.00 806.00 211.00" xmlns="http://www.w3.org/2000/svg" xmlns:xlink="http://www.w3.org/1999/xlink">
<g id="graph0" class="graph" transform="scale(1 1) rotate(0) translate(4 207)">
<title>dependencies</title>
<polygon fill="white" stroke="transparent" points="-4,4 -4,-207 802,-207 802,4 -4,4"/>
<text text-anchor="start" x="378.01" y="-42.4" font-family="Times-12" font-weight="bold" font-size="14.00">Legend</text>
<polygon fill="#ffffb3" stroke="transparent" points="165,-10 165,-30 185,-30 185,-10 165,-10"/>
<text text-anchor="start" x="188.63" y="-15.4" font-family="Times-12" font-size="14.00"> &#160;Declarations</text>
<polygon fill="#8dd3c7" stroke="transparent" points="278,-10 278,-30 298,-30 298,-10 278,-10"/>
<text text-anchor="start" x="301.73" y="-15.4" font-family="Times-12" font-size="14.00"> &#160;Module</text>
<polygon fill="#80b1d3" stroke="transparent" points="364,-10 364,-30 384,-30 384,-10 364,-10"/>
<text text-anchor="start" x="387.78" y="-15.4" font-family="Times-12" font-size="14.00"> &#160;Bootstrap</text>
<polygon fill="#fdb462" stroke="transparent" points="461,-10 461,-30 481,-30 481,-10 461,-10"/>
<text text-anchor="start" x="484.67" y="-15.4" font-family="Times-12" font-size="14.00"> &#160;Providers</text>
<polygon fill="#fb8072" stroke="transparent" points="557,-10 557,-30 577,-30 577,-10 557,-10"/>
<text text-anchor="start" x="580.73" y="-15.4" font-family="Times-12" font-size="14.00"> &#160;Exports</text>
<g id="clust1" class="cluster">
<title>cluster_VerifierModule</title>
<polygon fill="none" stroke="black" stroke-dasharray="1,5" points="8,-70 8,-195 790,-195 790,-70 8,-70"/>
</g>
<g id="clust3" class="cluster">
<title>cluster_VerifierModule_imports</title>
<polygon fill="none" stroke="black" points="16,-78 16,-130 782,-130 782,-78 16,-78"/>
</g>
<!-- CryptoModule -->
<g id="node1" class="node">
<title>CryptoModule</title>
<polygon fill="#8dd3c7" stroke="black" points="774.44,-122 771.44,-126 750.44,-126 747.44,-122 675.56,-122 675.56,-86 774.44,-86 774.44,-122"/>
<text text-anchor="middle" x="725" y="-99.8" font-family="Times,serif" font-size="14.00">CryptoModule</text>
</g>
<!-- VerifierModule -->
<g id="node7" class="node">
<title>VerifierModule</title>
<polygon fill="#8dd3c7" stroke="black" points="460.85,-187 457.85,-191 436.85,-191 433.85,-187 357.15,-187 357.15,-151 460.85,-151 460.85,-187"/>
<text text-anchor="middle" x="409" y="-164.8" font-family="Times,serif" font-size="14.00">VerifierModule</text>
</g>
<!-- CryptoModule&#45;&gt;VerifierModule -->
<g id="edge1" class="edge">
<title>CryptoModule&#45;&gt;VerifierModule</title>
<path fill="none" stroke="black" d="M725,-122.28C725,-143.32 725,-175 725,-175 725,-175 471.18,-175 471.18,-175"/>
<polygon fill="black" stroke="black" points="471.18,-171.5 461.18,-175 471.18,-178.5 471.18,-171.5"/>
</g>
<!-- Iso18013Module -->
<g id="node2" class="node">
<title>Iso18013Module</title>
<polygon fill="#8dd3c7" stroke="black" points="657.66,-122 654.66,-126 633.66,-126 630.66,-122 546.34,-122 546.34,-86 657.66,-86 657.66,-122"/>
<text text-anchor="middle" x="602" y="-99.8" font-family="Times,serif" font-size="14.00">Iso18013Module</text>
</g>
<!-- Iso18013Module&#45;&gt;VerifierModule -->
<g id="edge2" class="edge">
<title>Iso18013Module&#45;&gt;VerifierModule</title>
<path fill="none" stroke="black" d="M602,-122.02C602,-139.37 602,-163 602,-163 602,-163 470.97,-163 470.97,-163"/>
<polygon fill="black" stroke="black" points="470.97,-159.5 460.97,-163 470.97,-166.5 470.97,-159.5"/>
</g>
<!-- Oid4vpModule -->
<g id="node3" class="node">
<title>Oid4vpModule</title>
<polygon fill="#8dd3c7" stroke="black" points="527.55,-122 524.55,-126 503.55,-126 500.55,-122 426.45,-122 426.45,-86 527.55,-86 527.55,-122"/>
<text text-anchor="middle" x="477" y="-99.8" font-family="Times,serif" font-size="14.00">Oid4vpModule</text>
</g>
<!-- Oid4vpModule&#45;&gt;VerifierModule -->
<g id="edge3" class="edge">
<title>Oid4vpModule&#45;&gt;VerifierModule</title>
<path fill="none" stroke="black" d="M443.58,-122.11C443.58,-122.11 443.58,-140.99 443.58,-140.99"/>
<polygon fill="black" stroke="black" points="440.08,-140.99 443.58,-150.99 447.08,-140.99 440.08,-140.99"/>
</g>
<!-- PresentationsModule -->
<g id="node4" class="node">
<title>PresentationsModule</title>
<polygon fill="#8dd3c7" stroke="black" points="408.2,-122 405.2,-126 384.2,-126 381.2,-122 273.8,-122 273.8,-86 408.2,-86 408.2,-122"/>
<text text-anchor="middle" x="341" y="-99.8" font-family="Times,serif" font-size="14.00">PresentationsModule</text>
</g>
<!-- PresentationsModule&#45;&gt;VerifierModule -->
<g id="edge4" class="edge">
<title>PresentationsModule&#45;&gt;VerifierModule</title>
<path fill="none" stroke="black" d="M382.59,-122.11C382.59,-122.11 382.59,-140.99 382.59,-140.99"/>
<polygon fill="black" stroke="black" points="379.09,-140.99 382.59,-150.99 386.09,-140.99 379.09,-140.99"/>
</g>
<!-- RegistrarModule -->
<g id="node5" class="node">
<title>RegistrarModule</title>
<polygon fill="#8dd3c7" stroke="black" points="255.36,-122 252.36,-126 231.36,-126 228.36,-122 144.64,-122 144.64,-86 255.36,-86 255.36,-122"/>
<text text-anchor="middle" x="200" y="-99.8" font-family="Times,serif" font-size="14.00">RegistrarModule</text>
</g>
<!-- RegistrarModule&#45;&gt;VerifierModule -->
<g id="edge5" class="edge">
<title>RegistrarModule&#45;&gt;VerifierModule</title>
<path fill="none" stroke="black" d="M200,-122.02C200,-139.37 200,-163 200,-163 200,-163 347.07,-163 347.07,-163"/>
<polygon fill="black" stroke="black" points="347.07,-166.5 357.07,-163 347.07,-159.5 347.07,-166.5"/>
</g>
<!-- SessionModule -->
<g id="node6" class="node">
<title>SessionModule</title>
<polygon fill="#8dd3c7" stroke="black" points="126.33,-122 123.33,-126 102.33,-126 99.33,-122 23.67,-122 23.67,-86 126.33,-86 126.33,-122"/>
<text text-anchor="middle" x="75" y="-99.8" font-family="Times,serif" font-size="14.00">SessionModule</text>
</g>
<!-- SessionModule&#45;&gt;VerifierModule -->
<g id="edge6" class="edge">
<title>SessionModule&#45;&gt;VerifierModule</title>
<path fill="none" stroke="black" d="M75,-122.28C75,-143.32 75,-175 75,-175 75,-175 346.81,-175 346.81,-175"/>
<polygon fill="black" stroke="black" points="346.81,-178.5 356.81,-175 346.81,-171.5 346.81,-178.5"/>
</g>
</g>
</svg>
