<?xml version="1.0" encoding="UTF-8" standalone="no"?>
<!DOCTYPE svg PUBLIC "-//W3C//DTD SVG 1.1//EN"
 "http://www.w3.org/Graphics/SVG/1.1/DTD/svg11.dtd">
<!-- Generated by graphviz version 2.47.0 (20210316.0004)
 -->
<!-- Title: dependencies Pages: 1 -->
<svg width="643pt" height="284pt"
 viewBox="0.00 0.00 643.00 284.00" xmlns="http://www.w3.org/2000/svg" xmlns:xlink="http://www.w3.org/1999/xlink">
<g id="graph0" class="graph" transform="scale(1 1) rotate(0) translate(4 280)">
<title>dependencies</title>
<polygon fill="white" stroke="transparent" points="-4,4 -4,-280 639,-280 639,4 -4,4"/>
<text text-anchor="start" x="296.51" y="-42.4" font-family="Times-12" font-weight="bold" font-size="14.00">Legend</text>
<polygon fill="#ffffb3" stroke="transparent" points="83.5,-10 83.5,-30 103.5,-30 103.5,-10 83.5,-10"/>
<text text-anchor="start" x="107.13" y="-15.4" font-family="Times-12" font-size="14.00"> &#160;Declarations</text>
<polygon fill="#8dd3c7" stroke="transparent" points="196.5,-10 196.5,-30 216.5,-30 216.5,-10 196.5,-10"/>
<text text-anchor="start" x="220.23" y="-15.4" font-family="Times-12" font-size="14.00"> &#160;Module</text>
<polygon fill="#80b1d3" stroke="transparent" points="282.5,-10 282.5,-30 302.5,-30 302.5,-10 282.5,-10"/>
<text text-anchor="start" x="306.28" y="-15.4" font-family="Times-12" font-size="14.00"> &#160;Bootstrap</text>
<polygon fill="#fdb462" stroke="transparent" points="379.5,-10 379.5,-30 399.5,-30 399.5,-10 379.5,-10"/>
<text text-anchor="start" x="403.17" y="-15.4" font-family="Times-12" font-size="14.00"> &#160;Providers</text>
<polygon fill="#fb8072" stroke="transparent" points="475.5,-10 475.5,-30 495.5,-30 495.5,-10 475.5,-10"/>
<text text-anchor="start" x="499.23" y="-15.4" font-family="Times-12" font-size="14.00"> &#160;Exports</text>
<g id="clust1" class="cluster">
<title>cluster_IssuanceConfigModule</title>
<polygon fill="none" stroke="black" stroke-dasharray="1,5" points="8,-70 8,-268 627,-268 627,-70 8,-70"/>
</g>
<g id="clust3" class="cluster">
<title>cluster_IssuanceConfigModule_imports</title>
<polygon fill="none" stroke="black" points="186,-78 186,-130 619,-130 619,-78 186,-78"/>
</g>
<g id="clust6" class="cluster">
<title>cluster_IssuanceConfigModule_providers</title>
<polygon fill="none" stroke="black" points="16,-78 16,-130 178,-130 178,-78 16,-78"/>
</g>
<g id="clust4" class="cluster">
<title>cluster_IssuanceConfigModule_exports</title>
<polygon fill="none" stroke="black" points="262,-208 262,-260 388,-260 388,-208 262,-208"/>
</g>
<!-- AuditLogModule -->
<g id="node1" class="node">
<title>AuditLogModule</title>
<polygon fill="#8dd3c7" stroke="black" points="610.99,-122 607.99,-126 586.99,-126 583.99,-122 497.01,-122 497.01,-86 610.99,-86 610.99,-122"/>
<text text-anchor="middle" x="554" y="-99.8" font-family="Times,serif" font-size="14.00">AuditLogModule</text>
</g>
<!-- IssuanceConfigModule -->
<g id="node4" class="node">
<title>IssuanceConfigModule</title>
<polygon fill="#8dd3c7" stroke="black" points="398.13,-187 395.13,-191 374.13,-191 371.13,-187 251.87,-187 251.87,-151 398.13,-151 398.13,-187"/>
<text text-anchor="middle" x="325" y="-164.8" font-family="Times,serif" font-size="14.00">IssuanceConfigModule</text>
</g>
<!-- AuditLogModule&#45;&gt;IssuanceConfigModule -->
<g id="edge1" class="edge">
<title>AuditLogModule&#45;&gt;IssuanceConfigModule</title>
<path fill="none" stroke="black" d="M554,-122.11C554,-141.34 554,-169 554,-169 554,-169 408.4,-169 408.4,-169"/>
<polygon fill="black" stroke="black" points="408.4,-165.5 398.4,-169 408.4,-172.5 408.4,-165.5"/>
</g>
<!-- CredentialConfigModule -->
<g id="node2" class="node">
<title>CredentialConfigModule</title>
<polygon fill="#8dd3c7" stroke="black" points="479.25,-122 476.25,-126 455.25,-126 452.25,-122 322.75,-122 322.75,-86 479.25,-86 479.25,-122"/>
<text text-anchor="middle" x="401" y="-99.8" font-family="Times,serif" font-size="14.00">CredentialConfigModule</text>
</g>
<!-- CredentialConfigModule&#45;&gt;IssuanceConfigModule -->
<g id="edge2" class="edge">
<title>CredentialConfigModule&#45;&gt;IssuanceConfigModule</title>
<path fill="none" stroke="black" d="M360.47,-122.11C360.47,-122.11 360.47,-140.99 360.47,-140.99"/>
<polygon fill="black" stroke="black" points="356.97,-140.99 360.47,-150.99 363.97,-140.99 356.97,-140.99"/>
</g>
<!-- RegistrarModule -->
<g id="node3" class="node">
<title>RegistrarModule</title>
<polygon fill="#8dd3c7" stroke="black" points="304.36,-122 301.36,-126 280.36,-126 277.36,-122 193.64,-122 193.64,-86 304.36,-86 304.36,-122"/>
<text text-anchor="middle" x="249" y="-99.8" font-family="Times,serif" font-size="14.00">RegistrarModule</text>
</g>
<!-- RegistrarModule&#45;&gt;IssuanceConfigModule -->
<g id="edge3" class="edge">
<title>RegistrarModule&#45;&gt;IssuanceConfigModule</title>
<path fill="none" stroke="black" d="M278.06,-122.11C278.06,-122.11 278.06,-140.99 278.06,-140.99"/>
<polygon fill="black" stroke="black" points="274.56,-140.99 278.06,-150.99 281.56,-140.99 274.56,-140.99"/>
</g>
<!-- IssuanceService  -->
<g id="node5" class="node">
<title>IssuanceService </title>
<polygon fill="#fb8072" stroke="black" points="379.67,-252 270.33,-252 270.33,-216 379.67,-216 379.67,-252"/>
<text text-anchor="middle" x="325" y="-229.8" font-family="Times,serif" font-size="14.00">IssuanceService </text>
</g>
<!-- IssuanceConfigModule&#45;&gt;IssuanceService  -->
<g id="edge4" class="edge">
<title>IssuanceConfigModule&#45;&gt;IssuanceService </title>
<path fill="none" stroke="black" stroke-dasharray="5,2" d="M325,-187.11C325,-187.11 325,-205.99 325,-205.99"/>
<polygon fill="black" stroke="black" points="321.5,-205.99 325,-215.99 328.5,-205.99 321.5,-205.99"/>
</g>
<!-- IssuanceService -->
<g id="node6" class="node">
<title>IssuanceService</title>
<ellipse fill="#fdb462" stroke="black" cx="97" cy="-104" rx="73.47" ry="18"/>
<text text-anchor="middle" x="97" y="-99.8" font-family="Times,serif" font-size="14.00">IssuanceService</text>
</g>
<!-- IssuanceService&#45;&gt;IssuanceConfigModule -->
<g id="edge5" class="edge">
<title>IssuanceService&#45;&gt;IssuanceConfigModule</title>
<path fill="none" stroke="black" d="M97,-122.11C97,-141.34 97,-169 97,-169 97,-169 241.6,-169 241.6,-169"/>
<polygon fill="black" stroke="black" points="241.6,-172.5 251.6,-169 241.6,-165.5 241.6,-172.5"/>
</g>
</g>
</svg>
