<?xml version="1.0" encoding="UTF-8" standalone="no"?>
<!DOCTYPE svg PUBLIC "-//W3C//DTD SVG 1.1//EN"
 "http://www.w3.org/Graphics/SVG/1.1/DTD/svg11.dtd">
<!-- Generated by graphviz version 2.47.0 (20210316.0004)
 -->
<!-- Title: dependencies Pages: 1 -->
<svg width="1593pt" height="284pt"
 viewBox="0.00 0.00 1593.00 284.00" xmlns="http://www.w3.org/2000/svg" xmlns:xlink="http://www.w3.org/1999/xlink">
<g id="graph0" class="graph" transform="scale(1 1) rotate(0) translate(4 280)">
<title>dependencies</title>
<polygon fill="white" stroke="transparent" points="-4,4 -4,-280 1589,-280 1589,4 -4,4"/>
<text text-anchor="start" x="771.51" y="-42.4" font-family="Times-12" font-weight="bold" font-size="14.00">Legend</text>
<polygon fill="#ffffb3" stroke="transparent" points="558.5,-10 558.5,-30 578.5,-30 578.5,-10 558.5,-10"/>
<text text-anchor="start" x="582.13" y="-15.4" font-family="Times-12" font-size="14.00"> &#160;Declarations</text>
<polygon fill="#8dd3c7" stroke="transparent" points="671.5,-10 671.5,-30 691.5,-30 691.5,-10 671.5,-10"/>
<text text-anchor="start" x="695.23" y="-15.4" font-family="Times-12" font-size="14.00"> &#160;Module</text>
<polygon fill="#80b1d3" stroke="transparent" points="757.5,-10 757.5,-30 777.5,-30 777.5,-10 757.5,-10"/>
<text text-anchor="start" x="781.28" y="-15.4" font-family="Times-12" font-size="14.00"> &#160;Bootstrap</text>
<polygon fill="#fdb462" stroke="transparent" points="854.5,-10 854.5,-30 874.5,-30 874.5,-10 854.5,-10"/>
<text text-anchor="start" x="878.17" y="-15.4" font-family="Times-12" font-size="14.00"> &#160;Providers</text>
<polygon fill="#fb8072" stroke="transparent" points="950.5,-10 950.5,-30 970.5,-30 970.5,-10 950.5,-10"/>
<text text-anchor="start" x="974.23" y="-15.4" font-family="Times-12" font-size="14.00"> &#160;Exports</text>
<g id="clust1" class="cluster">
<title>cluster_PresentationsModule</title>
<polygon fill="none" stroke="black" stroke-dasharray="1,5" points="8,-70 8,-268 1577,-268 1577,-70 8,-70"/>
</g>
<g id="clust4" class="cluster">
<title>cluster_PresentationsModule_exports</title>
<polygon fill="none" stroke="black" points="770,-208 770,-260 1306,-260 1306,-208 770,-208"/>
</g>
<g id="clust3" class="cluster">
<title>cluster_PresentationsModule_imports</title>
<polygon fill="none" stroke="black" points="947,-78 947,-130 1569,-130 1569,-78 947,-78"/>
</g>
<g id="clust6" class="cluster">
<title>cluster_PresentationsModule_providers</title>
<polygon fill="none" stroke="black" points="16,-78 16,-130 939,-130 939,-78 16,-78"/>
</g>
<!-- AuditLogModule -->
<g id="node1" class="node">
<title>AuditLogModule</title>
<polygon fill="#8dd3c7" stroke="black" points="1560.99,-122 1557.99,-126 1536.99,-126 1533.99,-122 1447.01,-122 1447.01,-86 1560.99,-86 1560.99,-122"/>
<text text-anchor="middle" x="1504" y="-99.8" font-family="Times,serif" font-size="14.00">AuditLogModule</text>
</g>
<!-- PresentationsModule -->
<g id="node6" class="node">
<title>PresentationsModule</title>
<polygon fill="#8dd3c7" stroke="black" points="1067.2,-187 1064.2,-191 1043.2,-191 1040.2,-187 932.8,-187 932.8,-151 1067.2,-151 1067.2,-187"/>
<text text-anchor="middle" x="1000" y="-164.8" font-family="Times,serif" font-size="14.00">PresentationsModule</text>
</g>
<!-- AuditLogModule&#45;&gt;PresentationsModule -->
<g id="edge1" class="edge">
<title>AuditLogModule&#45;&gt;PresentationsModule</title>
<path fill="none" stroke="black" d="M1504,-122.13C1504,-142.57 1504,-173 1504,-173 1504,-173 1077.19,-173 1077.19,-173"/>
<polygon fill="black" stroke="black" points="1077.19,-169.5 1067.19,-173 1077.19,-176.5 1077.19,-169.5"/>
</g>
<!-- RegistrarModule -->
<g id="node2" class="node">
<title>RegistrarModule</title>
<polygon fill="#8dd3c7" stroke="black" points="1429.36,-122 1426.36,-126 1405.36,-126 1402.36,-122 1318.64,-122 1318.64,-86 1429.36,-86 1429.36,-122"/>
<text text-anchor="middle" x="1374" y="-99.8" font-family="Times,serif" font-size="14.00">RegistrarModule</text>
</g>
<!-- RegistrarModule&#45;&gt;PresentationsModule -->
<g id="edge2" class="edge">
<title>RegistrarModule&#45;&gt;PresentationsModule</title>
<path fill="none" stroke="black" d="M1374,-122.27C1374,-140.56 1374,-166 1374,-166 1374,-166 1077.3,-166 1077.3,-166"/>
<polygon fill="black" stroke="black" points="1077.3,-162.5 1067.3,-166 1077.3,-169.5 1077.3,-162.5"/>
</g>
<!-- ResolverModule -->
<g id="node3" class="node">
<title>ResolverModule</title>
<polygon fill="#8dd3c7" stroke="black" points="1300.81,-122 1297.81,-126 1276.81,-126 1273.81,-122 1191.19,-122 1191.19,-86 1300.81,-86 1300.81,-122"/>
<text text-anchor="middle" x="1246" y="-99.8" font-family="Times,serif" font-size="14.00">ResolverModule</text>
</g>
<!-- ResolverModule&#45;&gt;PresentationsModule -->
<g id="edge3" class="edge">
<title>ResolverModule&#45;&gt;PresentationsModule</title>
<path fill="none" stroke="black" d="M1244.75,-122.01C1244.75,-138.05 1244.75,-159 1244.75,-159 1244.75,-159 1077.2,-159 1077.2,-159"/>
<polygon fill="black" stroke="black" points="1077.2,-155.5 1067.2,-159 1077.2,-162.5 1077.2,-155.5"/>
</g>
<!-- TrustListModule -->
<g id="node4" class="node">
<title>TrustListModule</title>
<polygon fill="#8dd3c7" stroke="black" points="1173.38,-122 1170.38,-126 1149.38,-126 1146.38,-122 1062.62,-122 1062.62,-86 1173.38,-86 1173.38,-122"/>
<text text-anchor="middle" x="1118" y="-99.8" font-family="Times,serif" font-size="14.00">TrustListModule</text>
</g>
<!-- TrustListModule&#45;&gt;PresentationsModule -->
<g id="edge4" class="edge">
<title>TrustListModule&#45;&gt;PresentationsModule</title>
<path fill="none" stroke="black" d="M1062.52,-104C1057.1,-104 1053.56,-104 1053.56,-104 1053.56,-104 1053.56,-140.89 1053.56,-140.89"/>
<polygon fill="black" stroke="black" points="1050.06,-140.89 1053.56,-150.89 1057.06,-140.89 1050.06,-140.89"/>
</g>
<!-- TrustModule -->
<g id="node5" class="node">
<title>TrustModule</title>
<polygon fill="#8dd3c7" stroke="black" points="1044.6,-122 1041.6,-126 1020.6,-126 1017.6,-122 955.4,-122 955.4,-86 1044.6,-86 1044.6,-122"/>
<text text-anchor="middle" x="1000" y="-99.8" font-family="Times,serif" font-size="14.00">TrustModule</text>
</g>
<!-- TrustModule&#45;&gt;PresentationsModule -->
<g id="edge5" class="edge">
<title>TrustModule&#45;&gt;PresentationsModule</title>
<path fill="none" stroke="black" d="M1000,-122.11C1000,-122.11 1000,-140.99 1000,-140.99"/>
<polygon fill="black" stroke="black" points="996.5,-140.99 1000,-150.99 1003.5,-140.99 996.5,-140.99"/>
</g>
<!-- CredentialChainValidationService  -->
<g id="node7" class="node">
<title>CredentialChainValidationService </title>
<polygon fill="#fb8072" stroke="black" points="1298.33,-252 1085.67,-252 1085.67,-216 1298.33,-216 1298.33,-252"/>
<text text-anchor="middle" x="1192" y="-229.8" font-family="Times,serif" font-size="14.00">CredentialChainValidationService </text>
</g>
<!-- PresentationsModule&#45;&gt;CredentialChainValidationService  -->
<g id="edge6" class="edge">
<title>PresentationsModule&#45;&gt;CredentialChainValidationService </title>
<path fill="none" stroke="black" stroke-dasharray="5,2" d="M1067.48,-180C1098.98,-180 1129.64,-180 1129.64,-180 1129.64,-180 1129.64,-205.72 1129.64,-205.72"/>
<polygon fill="black" stroke="black" points="1126.14,-205.72 1129.64,-215.72 1133.14,-205.72 1126.14,-205.72"/>
</g>
<!-- MdocverifierService  -->
<g id="node8" class="node">
<title>MdocverifierService </title>
<polygon fill="#fb8072" stroke="black" points="1067.83,-252 932.17,-252 932.17,-216 1067.83,-216 1067.83,-252"/>
<text text-anchor="middle" x="1000" y="-229.8" font-family="Times,serif" font-size="14.00">MdocverifierService </text>
</g>
<!-- PresentationsModule&#45;&gt;MdocverifierService  -->
<g id="edge7" class="edge">
<title>PresentationsModule&#45;&gt;MdocverifierService </title>
<path fill="none" stroke="black" stroke-dasharray="5,2" d="M1000,-187.11C1000,-187.11 1000,-205.99 1000,-205.99"/>
<polygon fill="black" stroke="black" points="996.5,-205.99 1000,-215.99 1003.5,-205.99 996.5,-205.99"/>
</g>
<!-- PresentationsService  -->
<g id="node9" class="node">
<title>PresentationsService </title>
<polygon fill="#fb8072" stroke="black" points="914.13,-252 777.87,-252 777.87,-216 914.13,-216 914.13,-252"/>
<text text-anchor="middle" x="846" y="-229.8" font-family="Times,serif" font-size="14.00">PresentationsService </text>
</g>
<!-- PresentationsModule&#45;&gt;PresentationsService  -->
<g id="edge8" class="edge">
<title>PresentationsModule&#45;&gt;PresentationsService </title>
<path fill="none" stroke="black" stroke-dasharray="5,2" d="M932.45,-181C891.08,-181 846,-181 846,-181 846,-181 846,-205.76 846,-205.76"/>
<polygon fill="black" stroke="black" points="842.5,-205.76 846,-215.76 849.5,-205.76 842.5,-205.76"/>
</g>
<!-- CredentialChainValidationService -->
<g id="node10" class="node">
<title>CredentialChainValidationService</title>
<ellipse fill="#fdb462" stroke="black" cx="787" cy="-104" rx="144.09" ry="18"/>
<text text-anchor="middle" x="787" y="-99.8" font-family="Times,serif" font-size="14.00">CredentialChainValidationService</text>
</g>
<!-- CredentialChainValidationService&#45;&gt;PresentationsModule -->
<g id="edge9" class="edge">
<title>CredentialChainValidationService&#45;&gt;PresentationsModule</title>
<path fill="none" stroke="black" d="M922.56,-110.5C922.56,-124.65 922.56,-157 922.56,-157 922.56,-157 923.57,-157 923.57,-157"/>
<polygon fill="black" stroke="black" points="922.68,-160.5 932.68,-157 922.68,-153.5 922.68,-160.5"/>
</g>
<!-- MdocverifierService -->
<g id="node11" class="node">
<title>MdocverifierService</title>
<ellipse fill="#fdb462" stroke="black" cx="534" cy="-104" rx="90.87" ry="18"/>
<text text-anchor="middle" x="534" y="-99.8" font-family="Times,serif" font-size="14.00">MdocverifierService</text>
</g>
<!-- MdocverifierService&#45;&gt;PresentationsModule -->
<g id="edge10" class="edge">
<title>MdocverifierService&#45;&gt;PresentationsModule</title>
<path fill="none" stroke="black" d="M534,-122.02C534,-139.37 534,-163 534,-163 534,-163 922.74,-163 922.74,-163"/>
<polygon fill="black" stroke="black" points="922.74,-166.5 932.74,-163 922.74,-159.5 922.74,-166.5"/>
</g>
<!-- PresentationsService -->
<g id="node12" class="node">
<title>PresentationsService</title>
<ellipse fill="#fdb462" stroke="black" cx="334" cy="-104" rx="91.47" ry="18"/>
<text text-anchor="middle" x="334" y="-99.8" font-family="Times,serif" font-size="14.00">PresentationsService</text>
</g>
<!-- PresentationsService&#45;&gt;PresentationsModule -->
<g id="edge11" class="edge">
<title>PresentationsService&#45;&gt;PresentationsModule</title>
<path fill="none" stroke="black" d="M334,-122.11C334,-141.34 334,-169 334,-169 334,-169 922.78,-169 922.78,-169"/>
<polygon fill="black" stroke="black" points="922.78,-172.5 932.78,-169 922.78,-165.5 922.78,-172.5"/>
</g>
<!-- SdjwtvcverifierService -->
<g id="node13" class="node">
<title>SdjwtvcverifierService</title>
<ellipse fill="#fdb462" stroke="black" cx="124" cy="-104" rx="100.11" ry="18"/>
<text text-anchor="middle" x="124" y="-99.8" font-family="Times,serif" font-size="14.00">SdjwtvcverifierService</text>
</g>
<!-- SdjwtvcverifierService&#45;&gt;PresentationsModule -->
<g id="edge12" class="edge">
<title>SdjwtvcverifierService&#45;&gt;PresentationsModule</title>
<path fill="none" stroke="black" d="M124,-122.28C124,-143.32 124,-175 124,-175 124,-175 922.72,-175 922.72,-175"/>
<polygon fill="black" stroke="black" points="922.72,-178.5 932.72,-175 922.72,-171.5 922.72,-178.5"/>
</g>
</g>
</svg>
