<?xml version="1.0" encoding="UTF-8" standalone="no"?>
<!DOCTYPE svg PUBLIC "-//W3C//DTD SVG 1.1//EN"
 "http://www.w3.org/Graphics/SVG/1.1/DTD/svg11.dtd">
<!-- Generated by graphviz version 2.47.0 (20210316.0004)
 -->
<!-- Title: dependencies Pages: 1 -->
<svg width="552pt" height="284pt"
 viewBox="0.00 0.00 552.00 284.00" xmlns="http://www.w3.org/2000/svg" xmlns:xlink="http://www.w3.org/1999/xlink">
<g id="graph0" class="graph" transform="scale(1 1) rotate(0) translate(4 280)">
<title>dependencies</title>
<polygon fill="white" stroke="transparent" points="-4,4 -4,-280 548,-280 548,4 -4,4"/>
<text text-anchor="start" x="251.01" y="-42.4" font-family="Times-12" font-weight="bold" font-size="14.00">Legend</text>
<polygon fill="#ffffb3" stroke="transparent" points="38,-10 38,-30 58,-30 58,-10 38,-10"/>
<text text-anchor="start" x="61.63" y="-15.4" font-family="Times-12" font-size="14.00"> &#160;Declarations</text>
<polygon fill="#8dd3c7" stroke="transparent" points="151,-10 151,-30 171,-30 171,-10 151,-10"/>
<text text-anchor="start" x="174.73" y="-15.4" font-family="Times-12" font-size="14.00"> &#160;Module</text>
<polygon fill="#80b1d3" stroke="transparent" points="237,-10 237,-30 257,-30 257,-10 237,-10"/>
<text text-anchor="start" x="260.78" y="-15.4" font-family="Times-12" font-size="14.00"> &#160;Bootstrap</text>
<polygon fill="#fdb462" stroke="transparent" points="334,-10 334,-30 354,-30 354,-10 334,-10"/>
<text text-anchor="start" x="357.67" y="-15.4" font-family="Times-12" font-size="14.00"> &#160;Providers</text>
<polygon fill="#fb8072" stroke="transparent" points="430,-10 430,-30 450,-30 450,-10 430,-10"/>
<text text-anchor="start" x="453.73" y="-15.4" font-family="Times-12" font-size="14.00"> &#160;Exports</text>
<g id="clust1" class="cluster">
<title>cluster_WebhookEndpointModule</title>
<polygon fill="none" stroke="black" stroke-dasharray="1,5" points="8,-70 8,-268 536,-268 536,-70 8,-70"/>
</g>
<g id="clust6" class="cluster">
<title>cluster_WebhookEndpointModule_providers</title>
<polygon fill="none" stroke="black" points="286,-78 286,-130 528,-130 528,-78 286,-78"/>
</g>
<g id="clust3" class="cluster">
<title>cluster_WebhookEndpointModule_imports</title>
<polygon fill="none" stroke="black" points="16,-78 16,-130 278,-130 278,-78 16,-78"/>
</g>
<g id="clust4" class="cluster">
<title>cluster_WebhookEndpointModule_exports</title>
<polygon fill="none" stroke="black" points="121,-208 121,-260 305,-260 305,-208 121,-208"/>
</g>
<!-- AuditLogModule -->
<g id="node1" class="node">
<title>AuditLogModule</title>
<polygon fill="#8dd3c7" stroke="black" points="269.99,-122 266.99,-126 245.99,-126 242.99,-122 156.01,-122 156.01,-86 269.99,-86 269.99,-122"/>
<text text-anchor="middle" x="213" y="-99.8" font-family="Times,serif" font-size="14.00">AuditLogModule</text>
</g>
<!-- WebhookEndpointModule -->
<g id="node3" class="node">
<title>WebhookEndpointModule</title>
<polygon fill="#8dd3c7" stroke="black" points="295.81,-187 292.81,-191 271.81,-191 268.81,-187 130.19,-187 130.19,-151 295.81,-151 295.81,-187"/>
<text text-anchor="middle" x="213" y="-164.8" font-family="Times,serif" font-size="14.00">WebhookEndpointModule</text>
</g>
<!-- AuditLogModule&#45;&gt;WebhookEndpointModule -->
<g id="edge1" class="edge">
<title>AuditLogModule&#45;&gt;WebhookEndpointModule</title>
<path fill="none" stroke="black" d="M213,-122.11C213,-122.11 213,-140.99 213,-140.99"/>
<polygon fill="black" stroke="black" points="209.5,-140.99 213,-150.99 216.5,-140.99 209.5,-140.99"/>
</g>
<!-- WebhookModule -->
<g id="node2" class="node">
<title>WebhookModule</title>
<polygon fill="#8dd3c7" stroke="black" points="137.98,-122 134.98,-126 113.98,-126 110.98,-122 24.02,-122 24.02,-86 137.98,-86 137.98,-122"/>
<text text-anchor="middle" x="81" y="-99.8" font-family="Times,serif" font-size="14.00">WebhookModule</text>
</g>
<!-- WebhookModule&#45;&gt;WebhookEndpointModule -->
<g id="edge2" class="edge">
<title>WebhookModule&#45;&gt;WebhookEndpointModule</title>
<path fill="none" stroke="black" d="M134.17,-122.11C134.17,-122.11 134.17,-140.99 134.17,-140.99"/>
<polygon fill="black" stroke="black" points="130.67,-140.99 134.17,-150.99 137.67,-140.99 130.67,-140.99"/>
</g>
<!-- WebhookEndpointService  -->
<g id="node4" class="node">
<title>WebhookEndpointService </title>
<polygon fill="#fb8072" stroke="black" points="296.74,-252 129.26,-252 129.26,-216 296.74,-216 296.74,-252"/>
<text text-anchor="middle" x="213" y="-229.8" font-family="Times,serif" font-size="14.00">WebhookEndpointService </text>
</g>
<!-- WebhookEndpointModule&#45;&gt;WebhookEndpointService  -->
<g id="edge3" class="edge">
<title>WebhookEndpointModule&#45;&gt;WebhookEndpointService </title>
<path fill="none" stroke="black" stroke-dasharray="5,2" d="M213,-187.11C213,-187.11 213,-205.99 213,-205.99"/>
<polygon fill="black" stroke="black" points="209.5,-205.99 213,-215.99 216.5,-205.99 209.5,-205.99"/>
</g>
<!-- WebhookEndpointService -->
<g id="node5" class="node">
<title>WebhookEndpointService</title>
<ellipse fill="#fdb462" stroke="black" cx="407" cy="-104" rx="112.89" ry="18"/>
<text text-anchor="middle" x="407" y="-99.8" font-family="Times,serif" font-size="14.00">WebhookEndpointService</text>
</g>
<!-- WebhookEndpointService&#45;&gt;WebhookEndpointModule -->
<g id="edge4" class="edge">
<title>WebhookEndpointService&#45;&gt;WebhookEndpointModule</title>
<path fill="none" stroke="black" d="M294.01,-104C286.6,-104 282.02,-104 282.02,-104 282.02,-104 282.02,-140.89 282.02,-140.89"/>
<polygon fill="black" stroke="black" points="278.53,-140.89 282.02,-150.89 285.53,-140.89 278.53,-140.89"/>
</g>
</g>
</svg>
