<?xml version="1.0" encoding="UTF-8" standalone="no"?>
<!DOCTYPE svg PUBLIC "-//W3C//DTD SVG 1.1//EN"
 "http://www.w3.org/Graphics/SVG/1.1/DTD/svg11.dtd">
<!-- Generated by graphviz version 2.47.0 (20210316.0004)
 -->
<!-- Title: dependencies Pages: 1 -->
<svg width="850pt" height="284pt"
 viewBox="0.00 0.00 850.00 284.00" xmlns="http://www.w3.org/2000/svg" xmlns:xlink="http://www.w3.org/1999/xlink">
<g id="graph0" class="graph" transform="scale(1 1) rotate(0) translate(4 280)">
<title>dependencies</title>
<polygon fill="white" stroke="transparent" points="-4,4 -4,-280 846,-280 846,4 -4,4"/>
<text text-anchor="start" x="400.01" y="-42.4" font-family="Times-12" font-weight="bold" font-size="14.00">Legend</text>
<polygon fill="#ffffb3" stroke="transparent" points="187,-10 187,-30 207,-30 207,-10 187,-10"/>
<text text-anchor="start" x="210.63" y="-15.4" font-family="Times-12" font-size="14.00"> &#160;Declarations</text>
<polygon fill="#8dd3c7" stroke="transparent" points="300,-10 300,-30 320,-30 320,-10 300,-10"/>
<text text-anchor="start" x="323.73" y="-15.4" font-family="Times-12" font-size="14.00"> &#160;Module</text>
<polygon fill="#80b1d3" stroke="transparent" points="386,-10 386,-30 406,-30 406,-10 386,-10"/>
<text text-anchor="start" x="409.78" y="-15.4" font-family="Times-12" font-size="14.00"> &#160;Bootstrap</text>
<polygon fill="#fdb462" stroke="transparent" points="483,-10 483,-30 503,-30 503,-10 483,-10"/>
<text text-anchor="start" x="506.67" y="-15.4" font-family="Times-12" font-size="14.00"> &#160;Providers</text>
<polygon fill="#fb8072" stroke="transparent" points="579,-10 579,-30 599,-30 599,-10 579,-10"/>
<text text-anchor="start" x="602.73" y="-15.4" font-family="Times-12" font-size="14.00"> &#160;Exports</text>
<g id="clust1" class="cluster">
<title>cluster_Oid4vpModule</title>
<polygon fill="none" stroke="black" stroke-dasharray="1,5" points="8,-70 8,-268 834,-268 834,-70 8,-70"/>
</g>
<g id="clust3" class="cluster">
<title>cluster_Oid4vpModule_imports</title>
<polygon fill="none" stroke="black" points="178,-78 178,-130 826,-130 826,-78 178,-78"/>
</g>
<g id="clust4" class="cluster">
<title>cluster_Oid4vpModule_exports</title>
<polygon fill="none" stroke="black" points="371,-208 371,-260 491,-260 491,-208 371,-208"/>
</g>
<g id="clust6" class="cluster">
<title>cluster_Oid4vpModule_providers</title>
<polygon fill="none" stroke="black" points="16,-78 16,-130 170,-130 170,-78 16,-78"/>
</g>
<!-- CryptoModule -->
<g id="node1" class="node">
<title>CryptoModule</title>
<polygon fill="#8dd3c7" stroke="black" points="818.44,-122 815.44,-126 794.44,-126 791.44,-122 719.56,-122 719.56,-86 818.44,-86 818.44,-122"/>
<text text-anchor="middle" x="769" y="-99.8" font-family="Times,serif" font-size="14.00">CryptoModule</text>
</g>
<!-- Oid4vpModule -->
<g id="node6" class="node">
<title>Oid4vpModule</title>
<polygon fill="#8dd3c7" stroke="black" points="481.55,-187 478.55,-191 457.55,-191 454.55,-187 380.45,-187 380.45,-151 481.55,-151 481.55,-187"/>
<text text-anchor="middle" x="431" y="-164.8" font-family="Times,serif" font-size="14.00">Oid4vpModule</text>
</g>
<!-- CryptoModule&#45;&gt;Oid4vpModule -->
<g id="edge1" class="edge">
<title>CryptoModule&#45;&gt;Oid4vpModule</title>
<path fill="none" stroke="black" d="M769,-122.28C769,-143.32 769,-175 769,-175 769,-175 491.6,-175 491.6,-175"/>
<polygon fill="black" stroke="black" points="491.6,-171.5 481.6,-175 491.6,-178.5 491.6,-171.5"/>
</g>
<!-- PresentationsModule -->
<g id="node2" class="node">
<title>PresentationsModule</title>
<polygon fill="#8dd3c7" stroke="black" points="702.2,-122 699.2,-126 678.2,-126 675.2,-122 567.8,-122 567.8,-86 702.2,-86 702.2,-122"/>
<text text-anchor="middle" x="635" y="-99.8" font-family="Times,serif" font-size="14.00">PresentationsModule</text>
</g>
<!-- PresentationsModule&#45;&gt;Oid4vpModule -->
<g id="edge2" class="edge">
<title>PresentationsModule&#45;&gt;Oid4vpModule</title>
<path fill="none" stroke="black" d="M635,-122.02C635,-139.37 635,-163 635,-163 635,-163 491.69,-163 491.69,-163"/>
<polygon fill="black" stroke="black" points="491.69,-159.5 481.69,-163 491.69,-166.5 491.69,-159.5"/>
</g>
<!-- RegistrarModule -->
<g id="node3" class="node">
<title>RegistrarModule</title>
<polygon fill="#8dd3c7" stroke="black" points="549.36,-122 546.36,-126 525.36,-126 522.36,-122 438.64,-122 438.64,-86 549.36,-86 549.36,-122"/>
<text text-anchor="middle" x="494" y="-99.8" font-family="Times,serif" font-size="14.00">RegistrarModule</text>
</g>
<!-- RegistrarModule&#45;&gt;Oid4vpModule -->
<g id="edge3" class="edge">
<title>RegistrarModule&#45;&gt;Oid4vpModule</title>
<path fill="none" stroke="black" d="M460.17,-122.11C460.17,-122.11 460.17,-140.99 460.17,-140.99"/>
<polygon fill="black" stroke="black" points="456.67,-140.99 460.17,-150.99 463.67,-140.99 456.67,-140.99"/>
</g>
<!-- SessionModule -->
<g id="node4" class="node">
<title>SessionModule</title>
<polygon fill="#8dd3c7" stroke="black" points="420.33,-122 417.33,-126 396.33,-126 393.33,-122 317.67,-122 317.67,-86 420.33,-86 420.33,-122"/>
<text text-anchor="middle" x="369" y="-99.8" font-family="Times,serif" font-size="14.00">SessionModule</text>
</g>
<!-- SessionModule&#45;&gt;Oid4vpModule -->
<g id="edge4" class="edge">
<title>SessionModule&#45;&gt;Oid4vpModule</title>
<path fill="none" stroke="black" d="M400.19,-122.11C400.19,-122.11 400.19,-140.99 400.19,-140.99"/>
<polygon fill="black" stroke="black" points="396.7,-140.99 400.19,-150.99 403.7,-140.99 396.7,-140.99"/>
</g>
<!-- WebhookModule -->
<g id="node5" class="node">
<title>WebhookModule</title>
<polygon fill="#8dd3c7" stroke="black" points="299.98,-122 296.98,-126 275.98,-126 272.98,-122 186.02,-122 186.02,-86 299.98,-86 299.98,-122"/>
<text text-anchor="middle" x="243" y="-99.8" font-family="Times,serif" font-size="14.00">WebhookModule</text>
</g>
<!-- WebhookModule&#45;&gt;Oid4vpModule -->
<g id="edge5" class="edge">
<title>WebhookModule&#45;&gt;Oid4vpModule</title>
<path fill="none" stroke="black" d="M243,-122.02C243,-139.37 243,-163 243,-163 243,-163 370.12,-163 370.12,-163"/>
<polygon fill="black" stroke="black" points="370.12,-166.5 380.12,-163 370.12,-159.5 370.12,-166.5"/>
</g>
<!-- Oid4vpService  -->
<g id="node7" class="node">
<title>Oid4vpService </title>
<polygon fill="#fb8072" stroke="black" points="482.98,-252 379.02,-252 379.02,-216 482.98,-216 482.98,-252"/>
<text text-anchor="middle" x="431" y="-229.8" font-family="Times,serif" font-size="14.00">Oid4vpService </text>
</g>
<!-- Oid4vpModule&#45;&gt;Oid4vpService  -->
<g id="edge6" class="edge">
<title>Oid4vpModule&#45;&gt;Oid4vpService </title>
<path fill="none" stroke="black" stroke-dasharray="5,2" d="M431,-187.11C431,-187.11 431,-205.99 431,-205.99"/>
<polygon fill="black" stroke="black" points="427.5,-205.99 431,-215.99 434.5,-205.99 427.5,-205.99"/>
</g>
<!-- Oid4vpService -->
<g id="node8" class="node">
<title>Oid4vpService</title>
<ellipse fill="#fdb462" stroke="black" cx="93" cy="-104" rx="68.92" ry="18"/>
<text text-anchor="middle" x="93" y="-99.8" font-family="Times,serif" font-size="14.00">Oid4vpService</text>
</g>
<!-- Oid4vpService&#45;&gt;Oid4vpModule -->
<g id="edge7" class="edge">
<title>Oid4vpService&#45;&gt;Oid4vpModule</title>
<path fill="none" stroke="black" d="M93,-122.28C93,-143.32 93,-175 93,-175 93,-175 370.4,-175 370.4,-175"/>
<polygon fill="black" stroke="black" points="370.4,-178.5 380.4,-175 370.4,-171.5 370.4,-178.5"/>
</g>
</g>
</svg>
