<?xml version="1.0" encoding="UTF-8" standalone="no"?>
<!DOCTYPE svg PUBLIC "-//W3C//DTD SVG 1.1//EN"
 "http://www.w3.org/Graphics/SVG/1.1/DTD/svg11.dtd">
<!-- Generated by graphviz version 2.47.0 (20210316.0004)
 -->
<!-- Title: dependencies Pages: 1 -->
<svg width="588pt" height="284pt"
 viewBox="0.00 0.00 588.00 284.00" xmlns="http://www.w3.org/2000/svg" xmlns:xlink="http://www.w3.org/1999/xlink">
<g id="graph0" class="graph" transform="scale(1 1) rotate(0) translate(4 280)">
<title>dependencies</title>
<polygon fill="white" stroke="transparent" points="-4,4 -4,-280 584,-280 584,4 -4,4"/>
<text text-anchor="start" x="269.01" y="-42.4" font-family="Times-12" font-weight="bold" font-size="14.00">Legend</text>
<polygon fill="#ffffb3" stroke="transparent" points="56,-10 56,-30 76,-30 76,-10 56,-10"/>
<text text-anchor="start" x="79.63" y="-15.4" font-family="Times-12" font-size="14.00"> &#160;Declarations</text>
<polygon fill="#8dd3c7" stroke="transparent" points="169,-10 169,-30 189,-30 189,-10 169,-10"/>
<text text-anchor="start" x="192.73" y="-15.4" font-family="Times-12" font-size="14.00"> &#160;Module</text>
<polygon fill="#80b1d3" stroke="transparent" points="255,-10 255,-30 275,-30 275,-10 255,-10"/>
<text text-anchor="start" x="278.78" y="-15.4" font-family="Times-12" font-size="14.00"> &#160;Bootstrap</text>
<polygon fill="#fdb462" stroke="transparent" points="352,-10 352,-30 372,-30 372,-10 352,-10"/>
<text text-anchor="start" x="375.67" y="-15.4" font-family="Times-12" font-size="14.00"> &#160;Providers</text>
<polygon fill="#fb8072" stroke="transparent" points="448,-10 448,-30 468,-30 468,-10 448,-10"/>
<text text-anchor="start" x="471.73" y="-15.4" font-family="Times-12" font-size="14.00"> &#160;Exports</text>
<g id="clust1" class="cluster">
<title>cluster_WebhookModule</title>
<polygon fill="none" stroke="black" stroke-dasharray="1,5" points="8,-70 8,-268 572,-268 572,-70 8,-70"/>
</g>
<g id="clust6" class="cluster">
<title>cluster_WebhookModule_providers</title>
<polygon fill="none" stroke="black" points="142,-78 142,-130 564,-130 564,-78 142,-78"/>
</g>
<g id="clust3" class="cluster">
<title>cluster_WebhookModule_imports</title>
<polygon fill="none" stroke="black" points="16,-78 16,-130 134,-130 134,-78 16,-78"/>
</g>
<g id="clust4" class="cluster">
<title>cluster_WebhookModule_exports</title>
<polygon fill="none" stroke="black" points="89,-208 89,-260 411,-260 411,-208 89,-208"/>
</g>
<!-- SessionModule -->
<g id="node1" class="node">
<title>SessionModule</title>
<polygon fill="#8dd3c7" stroke="black" points="126.33,-122 123.33,-126 102.33,-126 99.33,-122 23.67,-122 23.67,-86 126.33,-86 126.33,-122"/>
<text text-anchor="middle" x="75" y="-99.8" font-family="Times,serif" font-size="14.00">SessionModule</text>
</g>
<!-- WebhookModule -->
<g id="node2" class="node">
<title>WebhookModule</title>
<polygon fill="#8dd3c7" stroke="black" points="284.98,-187 281.98,-191 260.98,-191 257.98,-187 171.02,-187 171.02,-151 284.98,-151 284.98,-187"/>
<text text-anchor="middle" x="228" y="-164.8" font-family="Times,serif" font-size="14.00">WebhookModule</text>
</g>
<!-- SessionModule&#45;&gt;WebhookModule -->
<g id="edge1" class="edge">
<title>SessionModule&#45;&gt;WebhookModule</title>
<path fill="none" stroke="black" d="M111.61,-122.11C111.61,-141.34 111.61,-169 111.61,-169 111.61,-169 160.83,-169 160.83,-169"/>
<polygon fill="black" stroke="black" points="160.83,-172.5 170.83,-169 160.83,-165.5 160.83,-172.5"/>
</g>
<!-- OutboundUrlPolicyService  -->
<g id="node3" class="node">
<title>OutboundUrlPolicyService </title>
<polygon fill="#fb8072" stroke="black" points="402.91,-252 231.09,-252 231.09,-216 402.91,-216 402.91,-252"/>
<text text-anchor="middle" x="317" y="-229.8" font-family="Times,serif" font-size="14.00">OutboundUrlPolicyService </text>
</g>
<!-- WebhookModule&#45;&gt;OutboundUrlPolicyService  -->
<g id="edge2" class="edge">
<title>WebhookModule&#45;&gt;OutboundUrlPolicyService </title>
<path fill="none" stroke="black" stroke-dasharray="5,2" d="M258.02,-187.11C258.02,-187.11 258.02,-205.99 258.02,-205.99"/>
<polygon fill="black" stroke="black" points="254.52,-205.99 258.02,-215.99 261.52,-205.99 254.52,-205.99"/>
</g>
<!-- WebhookService  -->
<g id="node4" class="node">
<title>WebhookService </title>
<polygon fill="#fb8072" stroke="black" points="212.91,-252 97.09,-252 97.09,-216 212.91,-216 212.91,-252"/>
<text text-anchor="middle" x="155" y="-229.8" font-family="Times,serif" font-size="14.00">WebhookService </text>
</g>
<!-- WebhookModule&#45;&gt;WebhookService  -->
<g id="edge3" class="edge">
<title>WebhookModule&#45;&gt;WebhookService </title>
<path fill="none" stroke="black" stroke-dasharray="5,2" d="M191.98,-187.11C191.98,-187.11 191.98,-205.99 191.98,-205.99"/>
<polygon fill="black" stroke="black" points="188.48,-205.99 191.98,-215.99 195.48,-205.99 188.48,-205.99"/>
</g>
<!-- OutboundUrlPolicyService -->
<g id="node5" class="node">
<title>OutboundUrlPolicyService</title>
<ellipse fill="#fdb462" stroke="black" cx="440" cy="-104" rx="116.33" ry="18"/>
<text text-anchor="middle" x="440" y="-99.8" font-family="Times,serif" font-size="14.00">OutboundUrlPolicyService</text>
</g>
<!-- OutboundUrlPolicyService&#45;&gt;WebhookModule -->
<g id="edge4" class="edge">
<title>OutboundUrlPolicyService&#45;&gt;WebhookModule</title>
<path fill="none" stroke="black" d="M363.39,-117.78C363.39,-136.86 363.39,-169 363.39,-169 363.39,-169 295.03,-169 295.03,-169"/>
<polygon fill="black" stroke="black" points="295.03,-165.5 285.03,-169 295.03,-172.5 295.03,-165.5"/>
</g>
<!-- WebhookService -->
<g id="node6" class="node">
<title>WebhookService</title>
<ellipse fill="#fdb462" stroke="black" cx="228" cy="-104" rx="77.57" ry="18"/>
<text text-anchor="middle" x="228" y="-99.8" font-family="Times,serif" font-size="14.00">WebhookService</text>
</g>
<!-- WebhookService&#45;&gt;WebhookModule -->
<g id="edge5" class="edge">
<title>WebhookService&#45;&gt;WebhookModule</title>
<path fill="none" stroke="black" d="M228,-122.11C228,-122.11 228,-140.99 228,-140.99"/>
<polygon fill="black" stroke="black" points="224.5,-140.99 228,-150.99 231.5,-140.99 224.5,-140.99"/>
</g>
</g>
</svg>
